<?xml version="1.0" encoding="UTF-8"?>
<svg id="Calque_1" data-name="Calque 1" xmlns="http://www.w3.org/2000/svg" viewBox="0 0 732.66 850.39">
    <defs>
        <style>
            .cls-1 {
            fill: #012732;
            }
        </style>
    </defs>
    <path class="cls-1"
          d="M448.15,274.7l-10.79,10.71c-7.79,7.73-20.39,7.63-28.06-.22L202.94,73.86c-15.56-15.94-8.65-42.7,12.69-49.1L293.92,1.26c13.62-4.09,28.22,2.07,34.8,14.67l123.03,235.6c4.01,7.68,2.55,17.08-3.6,23.18Z"/>
    <path class="cls-1"
          d="M724.05,581.86l-20.93,59.36c-5.57,15.79-27.02,17.94-35.6,3.57l-83.74-140.16c-4.44-7.43-3.53-16.88,2.25-23.33l9.18-10.24c7.44-8.31,20.28-8.81,28.35-1.11l95.49,91.04c5.63,5.37,7.59,13.54,5,20.88Z"/>
    <path class="cls-1"
          d="M732.53,433.71l-5.06-43.99c-1.1-9.53-8.88-16.89-18.45-17.47l-178.14-10.69c-14.83-.89-29.41-4.19-43.18-9.78L83.29,187.69c-22.71-9.22-48.25,4.25-53.48,28.19L.93,348.19c-5.36,24.53,13.22,47.77,38.33,47.96l439.34,3.22c12.18.09,21.38,11.06,19.34,23.07l-66.74,393.32c-3.69,21.76,16.83,39.77,37.93,33.3l78.68-24.16c13.72-4.21,22.45-17.64,20.73-31.89l-43.85-363.46c-1.7-14.12,11.61-25.36,25.24-21.31l157.35,46.68c13.59,4.03,26.87-7.13,25.25-21.21Z"/>
    <path class="cls-1"
          d="M576.25,117.39l-24.57,125.95c-2.15,11.04-13.08,18.06-24.02,15.43l-10.82-2.6c-8.48-2.04-14.62-9.41-15.11-18.12l-8.61-154.85c-.92-16.56,17.75-26.82,31.24-17.17l44,31.5c6.29,4.5,9.37,12.26,7.89,19.85Z"/>
    <path class="cls-1"
          d="M452.46,503.14l-186.69,281.2c-13.59,20.47-42.37,23.71-60.17,6.77l-94.96-90.36c-18.01-17.14-15.92-46.45,4.35-60.85l279.29-198.47c12.97-9.22,30.91-6.55,40.64,6.05l16.32,21.15c7.76,10.05,8.25,23.93,1.23,34.51Z"/>
    <path class="cls-1"
          d="M677.08,274.73l-51.74,41.47c-8.73,7-21.52,5.36-28.21-3.62l-14.37-19.3c-5.42-7.28-5.19-17.32.57-24.34l46.77-57.03c8.85-10.79,25.79-9.26,32.56,2.94l19.34,34.86c4.67,8.42,2.59,18.99-4.92,25.01Z"/>
</svg>