<?xml version="1.0" encoding="UTF-8"?>
<svg id="Calque_1" data-name="Calque 1" xmlns="http://www.w3.org/2000/svg" xmlns:xlink="http://www.w3.org/1999/xlink" viewBox="0 0 200 200">
  <defs>
    <style>
      .cls-1 {
        fill: none;
      }

      .cls-2 {
        fill: #012732;
      }

      .cls-3 {
        fill: #d3daec;
      }

      .cls-4 {
        clip-path: url(#clippath);
      }
    </style>
    <clipPath id="clippath">
      <path class="cls-1" d="M100,0C44.77,0,0,44.77,0,100s44.77,100,100,100,100-44.77,100-100S155.23,0,100,0Z"/>
    </clipPath>
  </defs>
  <path class="cls-3" d="M100,200c55.23,0,100-44.77,100-100S155.23,0,100,0,0,44.77,0,100s44.77,100,100,100"/>
  <g class="cls-4">
    <path class="cls-2" d="M114.03,74.18l-1.85,1.84c-1.34,1.33-3.5,1.31-4.81-.04l-35.38-36.24c-2.67-2.73-1.49-7.32,2.18-8.42l13.42-4.03c2.34-.7,4.84.35,5.97,2.51l21.1,40.4c.68,1.32.44,2.93-.62,3.97Z"/>
    <path class="cls-2" d="M161.34,126.85l-3.59,10.18c-.95,2.71-4.63,3.07-6.1.61l-14.36-24.03c-.76-1.27-.61-2.89.39-4l1.57-1.76c1.28-1.43,3.48-1.51,4.86-.19l16.37,15.61c.97.92,1.3,2.32.86,3.58Z"/>
    <path class="cls-2" d="M162.79,101.45l-.87-7.54c-.19-1.63-1.52-2.9-3.16-3l-30.55-1.83c-2.54-.15-5.04-.72-7.4-1.67l-69.34-28.14c-3.9-1.58-8.27.73-9.17,4.84l-4.95,22.68c-.92,4.21,2.27,8.19,6.58,8.23l75.33.55c2.09.01,3.67,1.9,3.31,3.96l-11.44,67.44c-.63,3.73,2.88,6.82,6.5,5.71l13.49-4.14c2.35-.72,3.85-3.02,3.55-5.47l-7.52-62.32c-.29-2.42,1.99-4.35,4.33-3.66l26.98,8.01c2.33.69,4.61-1.23,4.33-3.64"/>
    <path class="cls-2" d="M135.99,47.21l-4.21,21.6c-.37,1.9-2.24,3.1-4.12,2.65l-1.85-.45c-1.45-.35-2.51-1.62-2.59-3.11l-1.48-26.56c-.16-2.84,3.04-4.6,5.36-2.94l7.54,5.4c1.08.77,1.61,2.1,1.35,3.41Z"/>
    <path class="cls-2" d="M114.77,113.35l-32.01,48.22c-2.33,3.51-7.26,4.07-10.32,1.16l-16.28-15.49c-3.09-2.94-2.73-7.97.74-10.44l47.89-34.03c2.23-1.58,5.3-1.12,6.97,1.04l2.79,3.63c1.33,1.72,1.42,4.1.21,5.92Z"/>
    <path class="cls-2" d="M153.28,74.19l-8.87,7.11c-1.5,1.2-3.69.92-4.84-.62l-2.46-3.31c-.93-1.25-.89-2.97.1-4.17l8.02-9.78c1.51-1.85,4.42-1.59,5.58.5l3.32,5.97c.8,1.45.45,3.26-.84,4.29Z"/>
  </g>
</svg>