<?xml version="1.0" encoding="UTF-8"?>
<svg id="Calque_1" data-name="Calque 1" xmlns="http://www.w3.org/2000/svg" viewBox="0 0 566.93 97.27">
  <defs>
    <style>
      .cls-1 {
        fill: #fff;
      }
    </style>
  </defs>
  <g>
    <path class="cls-1" d="M397.74,22.77l5.43-7.59c.39-.54,1.01-.87,1.68-.87h5.21c1.68,0,2.66,1.9,1.68,3.27l-5.43,7.59c-.39.54-1.01.87-1.68.87h-5.21c-1.68,0-2.66-1.9-1.68-3.27M390.08,52.83h19.21c1.28,0,2.26-1.15,2.04-2.41-.07-.4-.15-.81-.25-1.21-.29-1.21-.73-2.35-1.34-3.43-.6-1.08-1.37-2.02-2.29-2.81-.92-.79-2.02-1.43-3.29-1.91-1.27-.48-2.73-.72-4.39-.72-1.91,0-3.59.37-5.05,1.1-1.46.73-2.7,1.68-3.72,2.86-1.02,1.18-1.8,2.51-2.34,4-.24.66-.44,1.31-.61,1.97-.33,1.3.67,2.56,2.01,2.56M403.41,81.05c-5.47,0-10.25-1.03-14.35-3.1-4.1-2.07-7.29-4.92-9.58-8.58-2.29-3.65-3.43-7.87-3.43-12.63,0-5.02,1.02-9.44,3.05-13.25,2.03-3.81,4.83-6.8,8.39-8.96,3.56-2.16,7.66-3.24,12.3-3.24,5.21,0,9.5,1.11,12.87,3.34,3.37,2.23,5.86,5.21,7.49,8.96,1.62,3.75,2.43,7.95,2.43,12.59,0,.64-.03,1.37-.1,2.19-.08,1.08-.98,1.91-2.06,1.91h-30.1c-1.43,0-2.44,1.43-1.95,2.78.49,1.35,1.18,2.54,2.07,3.56,1.46,1.68,3.3,2.96,5.53,3.81,2.23.86,4.7,1.29,7.44,1.29h10.99c1.14,0,2.07.93,2.07,2.07v5.21c0,1.14-.93,2.07-2.07,2.07h-10.99Z"/>
    <path class="cls-1" d="M119.8,78.99v-46.45c0-3.49-2.83-6.32-6.32-6.32h-11.06c-1.14,0-2.07-.93-2.07-2.07v-5.87c0-1.14.93-2.07,2.07-2.07h46.11c1.14,0,2.07.93,2.07,2.07v5.87c0,1.14-.93,2.07-2.07,2.07h-11.06c-3.49,0-6.32,2.83-6.32,6.32v46.45c0,1.14-.93,2.07-2.07,2.07h-7.21c-1.14,0-2.07-.93-2.07-2.07"/>
    <path class="cls-1" d="M169.35,72.86c3.05,0,5.69-.72,7.91-2.15,2.22-1.43,3.94-3.37,5.15-5.81,1.21-2.45,1.81-5.16,1.81-8.15s-.61-5.7-1.81-8.15c-1.21-2.45-2.93-4.39-5.15-5.82-2.22-1.43-4.86-2.15-7.91-2.15s-5.58.71-7.77,2.15c-2.19,1.43-3.91,3.35-5.15,5.77-1.24,2.42-1.86,5.15-1.86,8.2s.62,5.71,1.86,8.15c1.24,2.45,2.96,4.39,5.15,5.81,2.19,1.43,4.78,2.15,7.77,2.15M169.35,82.2c-4.96,0-9.38-1.13-13.25-3.38-3.88-2.26-6.95-5.31-9.2-9.15-2.26-3.85-3.39-8.15-3.39-12.92s1.13-9.07,3.39-12.92c2.25-3.84,5.32-6.9,9.2-9.15,3.88-2.25,8.29-3.38,13.25-3.38s9.47,1.13,13.35,3.38c3.88,2.26,6.95,5.31,9.2,9.15,2.25,3.85,3.38,8.15,3.38,12.92s-1.13,9.07-3.38,12.92c-2.26,3.85-5.33,6.9-9.2,9.15-3.88,2.25-8.33,3.38-13.35,3.38"/>
    <path class="cls-1" d="M226.79,82.2c-4.71,0-8.8-.94-12.3-2.81-3.5-1.87-6.2-4.46-8.1-7.77-1.91-3.3-2.86-7.02-2.86-11.16v-25.96c0-1.14.93-2.07,2.07-2.07h6.83c1.14,0,2.07.93,2.07,2.07v25.87c0,2.48.56,4.66,1.67,6.53,1.11,1.88,2.61,3.34,4.48,4.39,1.87,1.05,3.92,1.57,6.15,1.57s4.27-.52,6.15-1.57c1.87-1.05,3.37-2.51,4.48-4.39,1.11-1.87,1.67-4.05,1.67-6.53v-25.87c0-1.14.93-2.07,2.07-2.07h6.83c1.14,0,2.07.93,2.07,2.07v25.96c0,4.13-.97,7.85-2.91,11.16-1.94,3.3-4.64,5.9-8.11,7.77-3.46,1.87-7.55,2.81-12.25,2.81"/>
    <path class="cls-1" d="M292.71,39.7v-5.21c0-1.14-.93-2.07-2.07-2.07h-11.02c-1.14,0-2.07-.93-2.07-2.07v-8.07c0-1.14-.93-2.07-2.07-2.07h-6.73c-1.14,0-2.07.93-2.07,2.07v3.82c0,3.49-2.83,6.32-6.32,6.32-1.14,0-2.07.93-2.07,2.07v5.21c0,1.14.93,2.07,2.07,2.07h4.25c1.14,0,2.07.93,2.07,2.07v23.39c0,4.26,1.22,7.63,3.67,10.11,2.45,2.48,5.83,3.72,10.15,3.72h10.04c1.14,0,2.07-.93,2.07-2.07v-5.21c0-1.14-.93-2.07-2.07-2.07h-8.13c-1.46,0-2.64-.46-3.53-1.38-.89-.92-1.33-2.11-1.33-3.57v-22.91c0-1.14.93-2.07,2.07-2.07h11.02c1.14,0,2.07-.93,2.07-2.07"/>
    <path class="cls-1" d="M322.67,72.86c3.05,0,5.69-.72,7.91-2.15,2.23-1.43,3.94-3.37,5.15-5.81,1.21-2.45,1.81-5.16,1.81-8.15s-.61-5.7-1.81-8.15c-1.21-2.45-2.92-4.39-5.15-5.82-2.22-1.43-4.86-2.15-7.91-2.15s-5.58.71-7.77,2.15c-2.19,1.43-3.91,3.35-5.15,5.77-1.24,2.42-1.86,5.15-1.86,8.2s.62,5.71,1.86,8.15c1.24,2.45,2.96,4.39,5.15,5.81,2.19,1.43,4.78,2.15,7.77,2.15M322.67,82.2c-4.96,0-9.38-1.13-13.25-3.38-3.88-2.26-6.95-5.31-9.2-9.15-2.26-3.85-3.39-8.15-3.39-12.92s1.13-9.07,3.39-12.92c2.25-3.84,5.32-6.9,9.2-9.15,3.88-2.25,8.3-3.38,13.25-3.38s9.47,1.13,13.35,3.38c3.88,2.26,6.94,5.31,9.2,9.15,2.26,3.85,3.39,8.15,3.39,12.92s-1.13,9.07-3.39,12.92c-2.26,3.85-5.32,6.9-9.2,9.15-3.88,2.25-8.33,3.38-13.35,3.38"/>
    <path class="cls-1" d="M358.91,16.21h6.83c1.14,0,2.07.93,2.07,2.07v60.71c0,1.14-.93,2.07-2.07,2.07h-6.83c-1.14,0-2.07-.93-2.07-2.07V18.28c0-1.14.93-2.07,2.07-2.07"/>
    <path class="cls-1" d="M432.88,81.05c-1.14,0-2.07-.93-2.07-2.07v-32.73c0-4.32,1.22-7.71,3.67-10.16,2.45-2.45,5.83-3.67,10.15-3.67h9.66c1.14,0,2.07.93,2.07,2.07v5.21c0,1.14-.93,2.07-2.07,2.07h-7.66c-1.52,0-2.72.44-3.58,1.33-.86.89-1.29,2.1-1.29,3.62v32.25c0,1.14-.93,2.07-2.07,2.07h-6.83Z"/>
    <path class="cls-1" d="M486.32,72.86c3.05,0,5.69-.72,7.91-2.15,2.23-1.43,3.94-3.37,5.15-5.81,1.21-2.45,1.81-5.16,1.81-8.15s-.61-5.7-1.81-8.15c-1.21-2.45-2.92-4.39-5.15-5.82-2.22-1.43-4.86-2.15-7.91-2.15s-5.58.71-7.77,2.15c-2.19,1.43-3.91,3.35-5.15,5.77-1.24,2.42-1.86,5.15-1.86,8.2s.62,5.71,1.86,8.15c1.24,2.45,2.96,4.39,5.15,5.81,2.19,1.43,4.78,2.15,7.77,2.15M486.32,82.2c-4.96,0-9.38-1.13-13.25-3.38-3.88-2.26-6.95-5.31-9.2-9.15-2.26-3.85-3.39-8.15-3.39-12.92s1.13-9.07,3.39-12.92c2.25-3.84,5.32-6.9,9.2-9.15,3.88-2.25,8.29-3.38,13.25-3.38s9.47,1.13,13.35,3.38c3.88,2.26,6.94,5.31,9.2,9.15,2.25,3.85,3.38,8.15,3.38,12.92s-1.13,9.07-3.38,12.92c-2.26,3.85-5.33,6.9-9.2,9.15-3.88,2.25-8.33,3.38-13.35,3.38"/>
    <path class="cls-1" d="M522.56,81.05c-1.14,0-2.07-.93-2.07-2.07v-25.96c0-4.19.95-7.93,2.86-11.2,1.91-3.27,4.61-5.85,8.11-7.72,3.49-1.88,7.59-2.81,12.3-2.81s8.79.94,12.25,2.81c3.46,1.88,6.15,4.45,8.06,7.72,1.91,3.28,2.86,7.01,2.86,11.2v25.96c0,1.14-.93,2.07-2.07,2.07h-6.73c-1.14,0-2.07-.93-2.07-2.07v-25.87c0-2.48-.57-4.66-1.72-6.53-1.15-1.88-2.66-3.34-4.53-4.39-1.88-1.05-3.93-1.57-6.15-1.57s-4.18.52-6.05,1.57c-1.88,1.05-3.37,2.51-4.48,4.39-1.11,1.88-1.67,4.05-1.67,6.53v25.87c0,1.14-.93,2.07-2.07,2.07h-6.83Z"/>
  </g>
  <g>
    <path class="cls-1" d="M51.26,31.42l-1.23,1.22c-.89.88-2.33.87-3.21-.03L23.21,8.45c-1.78-1.82-.99-4.88,1.45-5.62L33.62.14c1.56-.47,3.23.24,3.98,1.68l14.07,26.95c.46.88.29,1.95-.41,2.65Z"/>
    <path class="cls-1" d="M82.82,66.56l-2.39,6.79c-.64,1.81-3.09,2.05-4.07.41l-9.58-16.03c-.51-.85-.4-1.93.26-2.67l1.05-1.17c.85-.95,2.32-1.01,3.24-.13l10.92,10.41c.64.61.87,1.55.57,2.39Z"/>
    <path class="cls-1" d="M83.79,49.61l-.58-5.03c-.13-1.09-1.02-1.93-2.11-2l-20.38-1.22c-1.7-.1-3.36-.48-4.94-1.12L9.53,21.47c-2.6-1.05-5.52.49-6.12,3.22L.11,39.83c-.61,2.81,1.51,5.46,4.38,5.49l50.25.37c1.39.01,2.45,1.27,2.21,2.64l-7.63,44.99c-.42,2.49,1.93,4.55,4.34,3.81l9-2.76c1.57-.48,2.57-2.02,2.37-3.65l-5.02-41.57c-.19-1.61,1.33-2.9,2.89-2.44l18,5.34c1.55.46,3.07-.82,2.89-2.43Z"/>
    <path class="cls-1" d="M65.92,13.43l-2.81,14.41c-.25,1.26-1.5,2.07-2.75,1.76l-1.24-.3c-.97-.23-1.67-1.08-1.73-2.07l-.98-17.71c-.11-1.89,2.03-3.07,3.57-1.96l5.03,3.6c.72.52,1.07,1.4.9,2.27Z"/>
    <path class="cls-1" d="M51.76,57.55l-21.36,32.17c-1.55,2.34-4.85,2.71-6.88.77l-10.86-10.34c-2.06-1.96-1.82-5.31.5-6.96l31.95-22.7c1.48-1.05,3.54-.75,4.65.69l1.87,2.42c.89,1.15.94,2.74.14,3.95Z"/>
    <path class="cls-1" d="M77.45,31.43l-5.92,4.74c-1,.8-2.46.61-3.23-.41l-1.64-2.21c-.62-.83-.59-1.98.06-2.78l5.35-6.52c1.01-1.23,2.95-1.06,3.72.34l2.21,3.99c.53.96.3,2.17-.56,2.86Z"/>
  </g>
</svg>