<?xml version="1.0" encoding="UTF-8"?>
<svg id="Calque_1" data-name="Calque 1" xmlns="http://www.w3.org/2000/svg" viewBox="0 0 57.9 11.34">
  <defs>
    <style>
      .cls-1 {
        fill: #012732;
      }
    </style>
  </defs>
  <path class="cls-1" d="M40.42,11.34h10.9c2.74-.16,3.12-2.72,3.12-2.72.1-.68.02-1.22.02-1.22-.08-.61-.95-2.43-2.82-2.61-1.1-.1-11.05-.68-11.05-.68.29,1.01.69,1.32.99,1.6.69.66,1.72.81,1.72.81.26.02,7.7.64,7.7.64.24.01.72.04.72.61,0,.17-.09.35-.2.45,0,0-.26.14-.51.14h-10.59v2.99ZM10.32,11.31h14.25c2.48-.49,2.74-2.72,2.74-2.72.12-.66.05-1.2.05-1.2-.07-.45-.93-2.42-2.8-2.59-1.11-.1-11-.88-11-.88.19.98.64,1.48.93,1.76.69.65,1.78.84,1.78.84.26.03,7.62.63,7.62.63.23.01.68.07.67.64,0,.07-.07.58-.63.58h-10.66V3.89l-2.96-.21v7.63ZM40.39,4.09l-2.99-.18v3.47s0,1-.99,1h-5.15s-.87-.07-.87-.99v-3.96l-3.02-.21v5.33c.49,2.55,2.82,2.75,2.82,2.75,0,0,.24.02.28.02h6.95s2.97-.24,2.97-3.06v-4.17ZM40.39.01h-3.04v2.99h3.04V.01ZM30.39.01h-3.05v2.99h3.05V.01ZM54.53,3.01V0h-10.9c-1.38.09-1.99.74-2.45,1.21-.48.5-.76,1.55-.76,1.55v.24h14.11ZM26.81,3.01V0h-10.19c-1.39.09-1.99.74-2.45,1.21-.49.5-.76,1.55-.76,1.55V.02h-5.41c-.41,0-.8.17-1.09.57-.31.4-1.54,2.41-1.54,2.41h21.45ZM5.25,3.19L0,11.31h3.58l5.04-7.76-3.38-.36ZM56.33,1.43v-.47h.43c.06,0,.11.01.15.03.06.04.1.1.1.2s-.03.16-.08.19c-.05.03-.11.05-.19.05h-.41ZM56.15,2.19h.18v-.59h.41c.07,0,.12,0,.16.02.06.03.09.09.09.18l.02.23c0,.05,0,.09,0,.11,0,.02.02.03.02.05h.23v-.03s-.04-.04-.06-.08c0-.02,0-.06,0-.12v-.19c0-.08-.03-.14-.05-.17-.03-.03-.07-.07-.13-.09.06-.03.11-.07.15-.13.03-.05.05-.12.05-.2,0-.16-.06-.27-.19-.33-.06-.03-.15-.05-.25-.05h-.61v1.38ZM55.35,1.43c0,.7.57,1.28,1.28,1.28.34,0,.65-.13.9-.37.24-.24.37-.56.37-.9s-.13-.66-.37-.9c-.24-.24-.56-.37-.9-.37-.71,0-1.28.57-1.28,1.28M55.45,1.43c0-.65.53-1.18,1.18-1.18.31,0,.6.13.82.34.22.23.34.52.34.83s-.12.61-.34.83c-.22.22-.51.35-.82.35-.65,0-1.18-.53-1.18-1.18"/>
</svg>