<?xml version="1.0" encoding="UTF-8"?>
<svg id="Calque_1" data-name="Calque 1" xmlns="http://www.w3.org/2000/svg" viewBox="0 0 40.78 19.84">
  <defs>
    <style>
      .cls-1 {
        fill: #012732;
      }
    </style>
  </defs>
  <path class="cls-1" d="M16.83,2.67c-.31-.26-.77-.43-1.26-.43-1.14,0-2.08.9-2.08,2.08s.94,2.06,2.08,2.06c.65,0,1.2-.27,1.59-.71v-1.14c-.2.35-.61.81-.98.96-.18.08-.39.12-.59.12-.71,0-1.3-.55-1.3-1.28,0-.67.55-1.3,1.3-1.3.37,0,.67.14.92.39s.63.73.82.94c.47.51,1.14.81,1.87.81,1.41,0,2.57-1.14,2.57-2.55-.04-1.43-1.18-2.61-2.61-2.61-.82,0-1.55.43-2.02,1.04v1.53c.37-.98,1.02-1.75,2.02-1.75s1.77.8,1.75,1.77c0,.98-.79,1.75-1.75,1.75-.43,0-.84-.16-1.14-.43-.37-.29-.8-.92-1.18-1.24"/>
  <path class="cls-1" d="M0,6.95h5.66v1.57s-.29-.63-.9-.63h-2.63v2.73h2.85v1.45s-.08-.47-.77-.47h-2.08v3.73c0,.55.59.88.59.88H.04s.57-.28.57-.88v-7.42c0-.61-.61-.96-.61-.96"/>
  <path class="cls-1" d="M14.24,6.95h2.89s-.65.31-.65.81v8.68c0,2.93-2.93,3.42-3.1,3.4.24-.16,1.47-1.2,1.49-3.4V7.76c0-.49-.63-.81-.63-.81"/>
  <path class="cls-1" d="M17.54,6.95h2.89s-.65.31-.65.81v7.56c0,.55.65.88.65.88h-2.89s.65-.33.65-.88v-7.56c-.02-.51-.65-.81-.65-.81"/>
  <path class="cls-1" d="M21,6.95h6.36l-.55,1.69s-.16-.71-.77-.71h-1.32v7.4c0,.47.63.88.63.88h-2.83s.61-.37.61-.88v-7.4h-1.59c-.45,0-1.1.86-1.1.86l.57-1.83Z"/>
  <path class="cls-1" d="M37.99,6.95h2.79s-.59.31-.59.81v5.6c0,2.28-1.89,2.97-3.2,2.97s-3.34-.71-3.34-2.97v-5.6c0-.51-.61-.81-.61-.81h2.87s-.63.31-.63.81v5.6c0,1.2.79,1.98,1.71,1.98s1.63-.81,1.63-1.98v-5.6c0-.51-.63-.81-.63-.81"/>
  <path class="cls-1" d="M10.9,6.95h2.83s-.61.33-.61.84v5.58c0,2.28-1.98,3.02-3.3,3.02s-3.34-.73-3.34-3.02v-5.58c0-.51-.57-.84-.57-.84h2.87s-.67.33-.67.84v5.58c0,1.18.8,2,1.71,2s1.67-.84,1.67-2v-5.58c.02-.51-.59-.84-.59-.84"/>
  <path class="cls-1" d="M32.19,8.43s-.41-.71-1.57-.71-1.79.61-1.79,1.41c0,.9.67,1.24,1.71,1.73,1,.47,2.48,1.14,2.48,2.79,0,1.49-1.32,2.73-3.69,2.73-.73,0-1.73-.25-1.73-.25l-.55-1.77c.51.49,1.39,1,2.3,1s2.08-.59,2.08-1.53c0-1.81-4.22-1.51-4.22-4.54,0-1.04.73-2.55,3.24-2.55.82,0,1.73.24,1.73.24v1.45Z"/>
</svg>