<?xml version="1.0" encoding="UTF-8"?>
<svg id="Calque_1" data-name="Calque 1" xmlns="http://www.w3.org/2000/svg" viewBox="0 0 19.84 19.84">
  <defs>
    <style>
      .cls-1 {
        fill: #012732;
      }
    </style>
  </defs>
  <path class="cls-1" d="M15.92,6.89h-1.58l-2.21,6.07h1.58l2.21-6.07ZM9.92,19.84c-.1,0-.2,0-.3,0l2.03-5.57h2.79c.49,0,1.03-.38,1.19-.84l2.2-6.04c.36-.99-.21-1.8-1.26-1.8h-3.87l-3.25,8.92h0l-1.84,5.06C3.25,18.54,0,14.61,0,9.92S3.06,1.54,7.24.37l-1.9,5.22-3.16,8.68h2.1l2.69-7.37h1.58l-2.69,7.37h2.1l2.5-6.88c.36-.99-.21-1.8-1.26-1.8h-1.77L9.47.01c.15,0,.3-.01.45-.01,5.48,0,9.92,4.44,9.92,9.92s-4.44,9.92-9.92,9.92"/>
</svg>