<?xml version="1.0" encoding="UTF-8"?>
<svg id="Calque_1" data-name="Calque 1" xmlns="http://www.w3.org/2000/svg" viewBox="0 0 56.03 17.01">
  <defs>
    <style>
      .cls-1 {
        fill: #012732;
      }
    </style>
  </defs>
  <rect class="cls-1" y=".25" width="2.07" height="11.78"/>
  <g>
    <path class="cls-1" d="M7.34,5.48c1.39,0,2.41,1.08,2.41,2.39,0,1.38-1.13,2.39-2.37,2.39-1.47,0-2.4-1.17-2.4-2.39,0-1.34,1.05-2.39,2.36-2.39M7.37,3.48c-2.65,0-4.49,2.04-4.49,4.38,0,2.61,2,4.4,4.51,4.4,2.38,0,4.45-1.76,4.45-4.41,0-2.22-1.72-4.37-4.48-4.37Z"/>
    <path class="cls-1" d="M17.02,5.48c1.39,0,2.41,1.08,2.41,2.39,0,1.38-1.13,2.39-2.37,2.39-1.47,0-2.4-1.17-2.4-2.39,0-1.34,1.05-2.39,2.36-2.39M17.04,3.48c-2.65,0-4.49,2.04-4.49,4.38,0,2.61,2,4.4,4.51,4.4,2.38,0,4.45-1.76,4.45-4.41,0-1.56-.68-2.25-.68-2.25l.57-.2v-1.68h-2.94s-.64-.24-1.43-.24Z"/>
    <path class="cls-1" d="M19.41,12.61c0,1.38-1.13,2.4-2.37,2.4-1.47,0-2.4-1.18-2.4-2.4h-2.1c0,2.61,2,4.4,4.51,4.4s4.45-1.76,4.45-4.4h-2.09Z"/>
  </g>
  <rect class="cls-1" x="22.34" y="3.73" width="2.07" height="8.3"/>
  <polygon class="cls-1" points="26.42 12.03 26.42 5.59 25.31 5.59 25.31 3.73 26.42 3.73 26.42 1.18 28.49 1.18 28.49 3.73 29.63 3.73 29.63 5.59 28.49 5.59 28.49 12.03 26.42 12.03"/>
  <g>
    <path class="cls-1" d="M24.75,1.37c0,.76-.61,1.37-1.37,1.37s-1.37-.61-1.37-1.37.61-1.37,1.37-1.37,1.37.61,1.37,1.37"/>
    <path class="cls-1" d="M34.22,5.3c.95,0,1.93.51,2.15,1.73h-4.33c.17-.86.92-1.73,2.19-1.73M34.29,3.48c-2.67,0-4.39,2.04-4.39,4.46s1.73,4.33,4.43,4.33c2.52,0,3.76-1.58,3.76-1.58l-1.38-1.38s-1.05,1.13-2.35,1.13c-1.09,0-1.96-.61-2.27-1.72h6.45v-.57c0-2.27-1.32-4.66-4.25-4.66"/>
    <path class="cls-1" d="M43.71,12.27c-2.67,0-4.49-2.04-4.49-4.44s2.06-4.35,4.49-4.35,3.55,1.66,3.55,1.66l-1.44,1.44s-.84-1.08-2.11-1.08c-1.42,0-2.39,1.08-2.39,2.37,0,1.36,1.03,2.4,2.37,2.4s2.13-1.08,2.13-1.08l1.46,1.44s-1.19,1.64-3.55,1.64Z"/>
    <path class="cls-1" d="M48.02,12.04V.22h2.07v4.34s.79-1.08,2.52-1.08c2.17,0,3.42,1.61,3.42,3.67v4.89h-2.07v-4.58c0-1.38-.86-1.96-1.82-1.96-1.09,0-2.05.62-2.05,2.07v4.47h-2.07Z"/>
  </g>
</svg>