<?xml version="1.0" encoding="UTF-8"?>
<svg id="Calque_1" data-name="Calque 1" xmlns="http://www.w3.org/2000/svg" viewBox="0 0 57.75 21">
  <defs>
    <style>
      .cls-1 {
        fill: #012732;
      }
    </style>
  </defs>
  <path class="cls-1" d="M6.6,20.06c-.3.31-.64.1-.77-.28C4.3,15.34,1.64,10.84.19,6.43c-.35-1.05-.29-1.97.76-2.48.56-.27.95-.39,1.52-.04,1.09.68,2.05,4.57,2.94,5.79,1.03,1.41,1.82-.09,2.25-1.04,1.24-2.7,2.16-5.59,3.43-8.29.15-.34.46-.45.8-.34.4.13,1.58,3.17,1.5,3.7l-6.78,16.32Z"/>
  <path class="cls-1" d="M22.74,4.3c.5.52.56,1.38.28,2.04-1.97,4.19-3.44,8.85-5.46,12.98-.73,1.49-.9.92-1.44-.23-1.32-2.84-2.33-5.85-3.72-8.65-.03-.21,1.36-3.53,1.56-3.9.47-.83.61-.02.86.53.63,1.35,1.35,4.76,3.12,2.42.72-1.2,1.68-4.45,2.54-5.33.63-.65,1.66-.49,2.26.14h0Z"/>
  <path class="cls-1" d="M30.6,14.9h-6.38c-.04-.61.2-1.03.77-1.17.67-.16,3.89-.15,4.57,0,.55.12,1.08.52,1.03,1.17M32.63,14.21c-.45-1.81-1.85-2.47-3.52-2.59-1.63-.12-5.05-.26-6.26.96-1.21,1.22-1.18,5.69-.2,7.03,1.18,1.62,4.9,1.45,6.69,1.28,1.63-.16,3.39-.79,3.46-2.8.03-.92-1.44-.93-1.94-.67-.43.23-.05,1.2-1.14,1.4-.79.15-4.01.12-4.73-.17-.72-.29-.86-.98-.91-1.71h0s8.4,0,8.4,0c.54,0,.24-2.32.14-2.74"/>
  <path class="cls-1" d="M54.37,13.67c-.8-.08-3.57-.13-4.27.03-.5.11-.53.44-.49.93l-.17.3c1.71.03,3.42.07,5.12.11.33.06.61.09.91.27.08-1.12,0-1.52-1.11-1.64M54.99,17.13c-.77-.26-4.17-.3-5.01-.14h0c-1.08.2-1.08,1.65,0,1.85.84.16,4.37.12,5.12-.17.61-.24.62-1.29-.1-1.54M48.89,11.89c1.23-.44,5.3-.41,6.58-.06,1.32.35,2.05,1.17,2.2,2.61.19,1.89-.06,4.14-.05,6.06-.28.6-1.74.13-2.21.14-.44,0-.95.26-1.43.28-1.35.05-4.78.22-5.85-.43-1.58-.96-1.59-5.15.7-5.31h0s-1.23-.28-1.23-.28c-.39-.3-.18-1.12-.07-1.55.22-.82.6-1.18,1.35-1.45"/>
  <path class="cls-1" d="M49.62,14.63c.01.08-.02.26,0,.27.18.14,3.85-.07,4.51,0,.25.02.36.13.44.15h-5.34l.39-.41h0Z"/>
  <path class="cls-1" d="M42.17,13.77c-.7-.19-3.44-.19-4.21-.1-.44.06-.94.29-1.11.74-.23.59-.23,3.43.14,3.94.5.69,3.63.6,4.49.51.65-.07,1.23-.23,1.49-.9.24-.64.29-3.33-.16-3.84h0c-.1-.11-.49-.32-.63-.36M43.1,8.69c.12-.45,1.51-.4,1.89-.35.16.02.32.19.32.35v11.74c0,.41-1.42.42-1.73.32-.32-.1-.33-.5-.35-.52-.04-.03-.67.37-.94.45-1.54.45-5.22.43-6.55-.59-.96-.73-1.17-1.89-1.24-3.07-.19-3.1.29-5.15,3.58-5.41,1.5-.12,3.64-.15,5.02.42.15-.88-.2-2.58,0-3.35h0Z"/>
</svg>