<?xml version="1.0" encoding="UTF-8"?>
<svg id="Calque_1" data-name="Calque 1" xmlns="http://www.w3.org/2000/svg" viewBox="0 0 1000 252.13">
  <defs>
    <style>
      .cls-1 {
        fill: #243573;
      }

      .cls-2 {
        fill: #012732;
      }

      .cls-3 {
        fill: #1d1d1b;
      }

      .cls-4 {
        fill: #da0e15;
      }

      .cls-5 {
        fill: #143c5c;
      }

      .cls-6 {
        fill: #e11022;
      }

      .cls-7 {
        fill: #fff;
      }

      .cls-8 {
        fill: #ec6154;
      }

      .cls-9 {
        fill: #9d9d9c;
      }

      .cls-10 {
        fill: #203c86;
      }
    </style>
  </defs>
  <g>
    <path class="cls-3" d="M402.88,213.7h11.66v-3.37h-7.6v-5.13h6.46v-3.37h-6.46v-4.74h7.6v-3.37h-11.66v20ZM384.29,210.93c1.77,2.11,4.02,3.34,7.4,3.34,3.68,0,6.59-2.26,6.66-6.03,0-6.86-9.08-5.83-9.08-9.45,0-1.2.94-2.12,2.37-2.12,1.51,0,2.83,1,4,2.51l2.97-2.68c-1.72-2.03-4-3.36-7.01-3.36-3.83,0-6.45,2.62-6.45,5.79,0,6.78,9.08,5.77,9.08,9.46,0,1.42-.98,2.28-2.57,2.28s-3.23-.92-4.42-2.46l-2.94,2.72ZM376.14,213.7h4.05v-20h-4.05v20ZM359.81,205.05l2.75-7.52,2.74,7.52h-5.48ZM352.32,213.7h4.32l1.91-5.2h7.99l1.91,5.2h4.32l-7.57-20h-5.32l-7.57,20ZM342.75,210.47c-3.77,0-6.45-2.94-6.45-6.77s2.68-6.77,6.45-6.77c2.28,0,4.08,1.11,5.23,2.75l3.2-2.49c-1.82-2.43-4.79-4.05-8.43-4.05-6.31,0-10.63,4.86-10.63,10.57,0,5.08,3.44,9.48,8.63,10.4l-2.51,4.2h3.59l2.49-4.15c2.91-.37,5.31-1.85,6.85-3.97l-3.2-2.45c-1.14,1.63-2.94,2.74-5.23,2.74M309.76,213.7h4.05v-14.45l8.95,14.45h5.2v-20h-4.05v14.45l-8.94-14.45h-5.21v20ZM293.42,205.05l2.74-7.52,2.75,7.52h-5.48ZM285.93,213.7h4.32l1.91-5.2h7.99l1.91,5.2h4.32l-7.57-20h-5.32l-7.57,20ZM274.82,197.08c1.72,0,2.72,1.03,2.72,2.54,0,1.63-1,2.63-2.72,2.63h-2.28v-5.17h2.28ZM268.49,213.7h4.05v-8.09h2.09l5.34,8.09h4.77l-6.25-8.86c2.06-.94,3.23-2.74,3.23-5.16,0-3.71-2.72-5.98-7.12-5.98h-6.11v20ZM252.97,213.7h4.05v-8.51h6.46v-3.37h-6.46v-4.74h7.6v-3.37h-11.66v20ZM228.61,213.7h11.66v-3.37h-7.6v-5.13h6.45v-3.37h-6.45v-4.74h7.6v-3.37h-11.66v20ZM219.24,206.22c0,2.68-1.54,4.25-4.03,4.25s-4.05-1.56-4.05-4.25v-12.52h-4.05v12.17c0,5.26,3.09,8.4,8.09,8.4s8.11-3.15,8.11-8.4v-12.17h-4.05v12.52ZM192.68,210.47c-3.78,0-6.46-2.94-6.46-6.77s2.68-6.77,6.46-6.77,6.42,2.94,6.42,6.77-2.68,6.77-6.42,6.77M200.53,213.19l-1.19-1.14c2.45-1.94,3.94-5,3.94-8.34,0-5.71-4.31-10.57-10.6-10.57s-10.63,4.86-10.63,10.57,4.31,10.58,10.63,10.58c.97,0,1.88-.12,2.74-.35l2.38,2.12c1.96,1.71,4.02,2.62,6.25,2.62.88,0,1.45-.11,2.11-.37v-3.43c-.42.17-1,.23-1.43.23-1.29,0-2.65-.51-4.2-1.91M173.82,213.7h4.05v-20h-4.05v20ZM158.31,213.7h11.66v-3.68h-7.59v-16.32h-4.06v20ZM146.65,204.96c1.89,0,3.03.98,3.03,2.68s-1.14,2.68-3.03,2.68h-2.48v-5.37h2.48ZM146.09,197.08c1.54,0,2.46.82,2.46,2.23s-.92,2.28-2.46,2.28h-1.91v-4.52h1.91ZM140.12,213.7h6.31c4.6,0,7.43-2.23,7.43-5.88,0-2.09-1.17-3.8-3.28-4.74,1.4-.92,2.14-2.31,2.14-3.94,0-3.37-2.54-5.43-6.71-5.43h-5.88v20ZM130.75,206.22c0,2.68-1.54,4.25-4.03,4.25s-4.05-1.56-4.05-4.25v-12.52h-4.05v12.17c0,5.26,3.09,8.4,8.09,8.4s8.11-3.15,8.11-8.4v-12.17h-4.05v12.52ZM108.41,197.08c1.72,0,2.75,1.03,2.75,2.54,0,1.63-1.03,2.63-2.75,2.63h-2.71v-5.17h2.71ZM101.64,213.7h4.06v-8.09h2.54c4.39,0,7.08-2.25,7.08-5.94s-2.69-5.98-7.08-5.98h-6.6v20ZM84.99,213.7h11.65v-3.37h-7.59v-5.13h6.45v-3.37h-6.45v-4.74h7.59v-3.37h-11.65v20ZM92.61,192l3.71-3.86h-4.17l-3.23,3.86h3.68ZM72.22,197.08c1.72,0,2.72,1.03,2.72,2.54,0,1.63-1,2.63-2.72,2.63h-2.28v-5.17h2.28ZM65.88,213.7h4.05v-8.09h2.09l5.34,8.09h4.77l-6.25-8.86c2.06-.94,3.23-2.74,3.23-5.16,0-3.71-2.72-5.98-7.12-5.98h-6.11v20Z"/>
    <path class="cls-10" d="M14.02,129c-3.25,0-6.33,2.71-6.33,6.77s3.08,6.8,6.33,6.8,6.16-2.5,6.16-6.77-2.85-6.8-6.16-6.8M14.49,144.9c-3.25,0-5.35-1.76-6.7-3.72v8.76h-2.6v-22.91h2.6v3.52c1.42-2.09,3.48-3.89,6.7-3.89,4.2,0,8.35,3.31,8.35,9.1s-4.13,9.14-8.35,9.14"/>
    <path class="cls-10" d="M30.26,144.53h-2.6v-17.49h2.6v4.57c1.29-2.91,3.83-5.01,7.14-4.88v2.81h-.21c-3.82,0-6.93,2.74-6.93,8.02v6.96Z"/>
    <path class="cls-10" d="M48.6,128.97c-3.79,0-6.4,3-6.4,6.8s2.78,6.83,6.47,6.83,6.43-3.01,6.43-6.77-2.81-6.86-6.5-6.86M48.6,144.94c-5.25,0-9.07-4.13-9.07-9.1s3.87-9.17,9.15-9.17,9.09,4.13,9.09,9.1-3.89,9.17-9.17,9.17"/>
    <path class="cls-10" d="M70.35,144.94c-5.11,0-8.97-4.17-8.97-9.1s3.86-9.17,8.97-9.17c3.31,0,5.38,1.39,7.01,3.12l-1.73,1.82c-1.39-1.45-2.94-2.63-5.31-2.63-3.56,0-6.26,3-6.26,6.8s2.78,6.83,6.43,6.83c2.23,0,3.96-1.11,5.35-2.6l1.66,1.55c-1.76,1.96-3.86,3.38-7.14,3.38"/>
    <path class="cls-10" d="M94.11,134.82c-.28-3.18-2.1-5.96-5.59-5.96-3.05,0-5.35,2.54-5.69,5.96h11.27ZM88.99,142.67c2.41,0,4.09-.98,5.51-2.47l1.63,1.45c-1.76,1.96-3.89,3.28-7.21,3.28-4.8,0-8.72-3.68-8.72-9.14,0-5.07,3.55-9.14,8.39-9.14,5.17,0,8.15,4.14,8.15,9.28,0,.23,0,.5-.03.8h-13.88c.38,3.8,3.09,5.93,6.16,5.93"/>
    <path class="cls-10" d="M107.1,144.87c-2.5,0-5.28-.98-7.24-2.57l1.32-1.86c1.9,1.42,4,2.23,6.06,2.23s3.62-1.08,3.62-2.77v-.07c0-1.76-2.07-2.44-4.36-3.08-2.75-.78-5.79-1.73-5.79-4.95v-.06c0-3.01,2.51-5.01,5.96-5.01,2.13,0,4.51.74,6.3,1.93l-1.18,1.95c-1.63-1.05-3.49-1.69-5.17-1.69-2.07,0-3.38,1.08-3.38,2.54v.06c0,1.66,2.16,2.3,4.5,3.01,2.71.81,5.62,1.86,5.62,5.01v.06c0,3.32-2.74,5.25-6.22,5.25"/>
    <path class="cls-10" d="M123.61,144.87c-2.5,0-5.28-.98-7.24-2.57l1.32-1.86c1.9,1.42,4,2.23,6.06,2.23s3.62-1.08,3.62-2.77v-.07c0-1.76-2.07-2.44-4.36-3.08-2.75-.78-5.79-1.73-5.79-4.95v-.06c0-3.01,2.51-5.01,5.96-5.01,2.13,0,4.51.74,6.3,1.93l-1.18,1.95c-1.63-1.05-3.49-1.69-5.17-1.69-2.07,0-3.38,1.08-3.38,2.54v.06c0,1.66,2.16,2.3,4.5,3.01,2.71.81,5.62,1.86,5.62,5.01v.06c0,3.32-2.74,5.25-6.22,5.25"/>
    <path class="cls-10" d="M147.09,127.04h2.57v17.49h-2.57v-3.05c-1.18,1.9-2.97,3.43-5.99,3.43-4.23,0-6.7-2.85-6.7-7.01v-10.86h2.6v10.22c0,3.25,1.76,5.28,4.84,5.28s5.25-2.19,5.25-5.47v-10.02Z"/>
    <path class="cls-10" d="M161.3,144.87c-2.5,0-5.28-.98-7.24-2.57l1.32-1.86c1.9,1.42,4,2.23,6.06,2.23s3.62-1.08,3.62-2.77v-.07c0-1.76-2.07-2.44-4.36-3.08-2.75-.78-5.79-1.73-5.79-4.95v-.06c0-3.01,2.51-5.01,5.96-5.01,2.13,0,4.51.74,6.3,1.93l-1.18,1.95c-1.63-1.05-3.49-1.69-5.17-1.69-2.07,0-3.38,1.08-3.38,2.54v.06c0,1.66,2.16,2.3,4.5,3.01,2.71.81,5.62,1.86,5.62,5.01v.06c0,3.32-2.74,5.25-6.22,5.25"/>
    <path class="cls-10" d="M190.4,144.94c-5.11,0-8.97-4.17-8.97-9.1s3.86-9.17,8.97-9.17c3.31,0,5.38,1.39,7.01,3.12l-1.73,1.82c-1.39-1.45-2.94-2.63-5.31-2.63-3.56,0-6.26,3-6.26,6.8s2.78,6.83,6.43,6.83c2.23,0,3.96-1.11,5.35-2.6l1.66,1.55c-1.76,1.96-3.86,3.38-7.14,3.38"/>
    <path class="cls-10" d="M214.15,134.82c-.28-3.18-2.1-5.96-5.59-5.96-3.05,0-5.35,2.54-5.69,5.96h11.27ZM209.04,142.67c2.4,0,4.09-.98,5.51-2.47l1.63,1.45c-1.76,1.96-3.89,3.28-7.21,3.28-4.8,0-8.72-3.68-8.72-9.14,0-5.07,3.55-9.14,8.39-9.14,5.17,0,8.15,4.14,8.15,9.28,0,.23,0,.5-.03.8h-13.88c.38,3.8,3.09,5.93,6.16,5.93"/>
    <path class="cls-10" d="M223.96,144.53h-2.6v-17.49h2.6v4.57c1.29-2.91,3.83-5.01,7.14-4.88v2.81h-.21c-3.82,0-6.93,2.74-6.93,8.02v6.96Z"/>
    <path class="cls-10" d="M238.58,139.56c0,2.13,1.18,2.91,2.94,2.91.88,0,1.63-.17,2.54-.61v2.23c-.92.47-1.89.74-3.15.74-2.81,0-4.94-1.39-4.94-4.94v-10.55h-2.44v-2.3h2.44v-5.28h2.6v5.28h5.54v2.3h-5.54v10.22Z"/>
  </g>
  <path class="cls-10" d="M248.96,144.53h2.61v-17.5h-2.61v17.5ZM248.8,123.21h2.98v-2.88h-2.98v2.88Z"/>
  <path class="cls-10" d="M266.73,127.11v2.23h-5.51v15.19h-2.61v-15.19h-2.4v-2.26h2.4v-1.52c0-3.83,1.93-5.85,5.29-5.85,1.21,0,2.03.13,2.87.43v2.27c-.95-.28-1.66-.44-2.53-.44-2.04,0-3.05,1.21-3.05,3.72v1.42h5.54Z"/>
  <path class="cls-10" d="M270.29,144.53h2.6v-17.5h-2.6v17.5ZM270.12,123.21h2.97v-2.88h-2.97v2.88Z"/>
  <g>
    <path class="cls-10" d="M284.63,124.4l3.21-4.91,2.71,1.26-3.82,3.65h-2.1ZM291.77,134.82c-.28-3.18-2.1-5.96-5.59-5.96-3.05,0-5.35,2.54-5.69,5.96h11.27ZM286.66,142.67c2.4,0,4.09-.98,5.51-2.47l1.63,1.45c-1.76,1.96-3.89,3.28-7.21,3.28-4.8,0-8.72-3.68-8.72-9.14,0-5.07,3.55-9.14,8.39-9.14,5.17,0,8.15,4.14,8.15,9.28,0,.24,0,.5-.03.8h-13.88c.38,3.8,3.09,5.93,6.16,5.93"/>
    <path class="cls-10" d="M25.65,89.37c-8.9,0-16.13-7.23-16.13-16.12s7.23-16.13,16.13-16.13,16.26,7.23,16.26,16.13-7.29,16.12-16.26,16.12M41.83,99.69h9.58c-.23-3.85-1.89-7.42-4.75-10.14l-.59-.56.48-.65c3.19-4.36,4.89-9.59,4.89-15.09,0-14.15-11.57-25.66-25.79-25.66S0,59.1,0,73.25s11.5,25.79,25.65,25.79c4.28,0,8.52-1.11,12.59-3.29l.48-.27.46.31c1.42.95,2.37,2.37,2.64,3.9"/>
    <path class="cls-10" d="M62.33,60.92v19.57c0,11.25,7.53,19.42,17.9,19.42,3.16,0,6.34-.81,9.2-2.36l1.35-.73v3.01h8.88v-38.92h-8.88v19.57c0,5.81-4.72,10.54-10.54,10.54-6.2,0-9.02-5.46-9.02-10.54v-19.57h-8.88Z"/>
    <path class="cls-10" d="M125.55,91.03c-5.81,0-10.54-4.73-10.54-10.54s4.73-10.54,10.54-10.54,10.54,4.73,10.54,10.54-4.73,10.54-10.54,10.54M125.55,61.13c-10.71,0-19.42,8.68-19.42,19.35s8.71,19.42,19.42,19.42c3.26,0,6.36-.79,9.19-2.35l1.36-.75v2.52h8.81v-37.69h-8.81v2.49l-1.35-.71c-2.88-1.51-5.98-2.28-9.2-2.28"/>
  </g>
  <rect class="cls-10" x="152.67" y="49.04" width="9.09" height="49.99"/>
  <g>
    <path class="cls-10" d="M178.53,48.39c-2.84,0-5.15,2.31-5.15,5.16s2.31,5.08,5.15,5.08,5.09-2.28,5.09-5.08-2.28-5.16-5.09-5.16M173.88,99.04h9.09v-37.11h-9.09v37.11Z"/>
    <path class="cls-10" d="M210.9,91.11c-6.13,0-11.13-4.99-11.13-11.13s5-11.13,11.13-11.13,11.13,5,11.13,11.13-5,11.13-11.13,11.13M210.9,60.05c-10.99,0-19.93,8.94-19.93,19.93s8.94,19.93,19.93,19.93,19.93-8.94,19.93-19.93-8.94-19.93-19.93-19.93"/>
    <path class="cls-10" d="M259.62,91.03c-5.81,0-10.54-4.73-10.54-10.54s4.73-10.54,10.54-10.54,10.55,4.73,10.55,10.54-4.73,10.54-10.55,10.54M240.2,111.63h8.88v-14.81l1.36.73c2.77,1.49,5.95,2.28,9.19,2.28,10.67,0,19.35-8.68,19.35-19.35s-8.68-19.42-19.35-19.42c-3.28,0-6.46.81-9.18,2.35l-1.37.77v-2.54h-8.88v50Z"/>
    <path class="cls-10" d="M293.94,48.39c-2.85,0-5.16,2.31-5.16,5.16s2.31,5.08,5.16,5.08,5.08-2.28,5.08-5.08-2.28-5.16-5.08-5.16M289.28,99.04h9.09v-37.11h-9.09v37.11Z"/>
  </g>
  <polygon class="cls-4" points="310.75 99.06 362.65 99.06 310.74 152.04 310.75 99.06"/>
  <polygon class="cls-10" points="310.75 99.06 362.66 99.08 310.74 46.33 310.75 99.06"/>
  <polygon class="cls-10" points="362.62 99.06 414.52 99.06 362.61 152.04 362.62 99.06"/>
  <polygon class="cls-4" points="362.62 99.06 414.53 99.08 362.61 46.33 362.62 99.06"/>
  <g>
    <path class="cls-7" d="M16.16,208.04c-.07-.07.14,0,.14-.07h-.36c-.06,0-.06-.07-.06-.07-.22.07-.43.14-.64.14-.29.06-.49.28-.78.35-.42.14-.77.49-1.19.64-.07,0-.07-.07-.07-.07.07-.14.21-.14.28-.29q0-.07-.07-.07c.29-.42.71-.63,1.13-.99v-.13c.14-.14.29-.22.35-.43.07-.13.22-.28.36-.35-.07-.07-.14-.07-.14-.14-.14,0-.28.07-.42-.06.07-.07.14-.14.21-.14,0,0-.06,0-.06-.07-.07-.07.06-.14.21-.22.14-.06.35-.06.42-.13-.28-.07-.57.07-.84-.07.22-.49.49-.92.92-1.13.07,0,.14,0,.14.07,0,.22-.14.35-.29.35.29.07.64.07.93.22-.07.07-.14.07-.14.07.22.13.42.07.64.21-.14.14-.22,0-.36,0,1.2.36,2.41.64,3.39,1.35-.85.42-1.7.63-2.61.77-.14,0-.22,0-.29-.07,0,.07,0,.14-.06.14-.14,0-.29,0-.36.07-.07.21-.28.21-.35.14M15.38,210.64s-.06,0,0,0c-.13.14-.28.22-.42.29-.13.07-.35.14-.49.21h-.07c-.13.07-.28.22-.35.29l-.07.07-.07.07-.06.06s0,.07-.07.07h-.22l-.14.14c-.06.07-.13.14-.21.22v.06-.06q.07-.07.14-.14l.06-.07.07-.07c.07-.07.07-.14.14-.14l.07-.06s0-.07.07-.07c0,0,0-.07.07-.07v-.14c.06-.07.06-.14.13-.21-.07,0-.07.06-.13.13-.07,0-.14,0-.07-.07l.07-.06c.06-.07.13-.14.21-.22.07,0,.07-.07.14-.07l.07-.07c.35-.35.99-.35,1.48-.57.21-.07.42.07.64,0,.13,0,.21,0,.35.07-.78,0-1.06.22-1.35.42M16.02,210.93c0,.07-.07.07-.07.14q.07,0,.07.06c-.07.07-.13.14-.28.22h-.07q-.07.07-.14.14c-.07.07-.28,0-.21-.07.06-.07.21-.22.28-.29.07-.06.14-.06.14-.13l.07-.07c.07,0,.28-.07.21,0M14.26,205.28q-.07.07-.14.14c-.07.07-.07.13-.14.13s-.07,0-.07-.06c.07-.14.14-.29.29-.36.07.07.07.14.07.14M11.15,207.75l-.07-.07c.49-.64.84-1.27,1.2-1.9.49-.28.92-.64,1.27-1.06.64-.71,1.34-1.27,2.12-1.7.28-.13.71-.06.99.07-.14.14-.28.14-.42.22q-.07,0-.14-.07t.07-.14c-.35.42-.92.64-1.2,1.13-.21.35-.35.84-.84.99-.14.07.07-.14-.07-.07-1.19.78-1.98,1.63-2.89,2.61M16.93,208.59c-.06,0-.21.07-.21-.06.07-.22.28-.22.42-.29.07-.07.22-.14.28-.07.07.14.22.07.29.14-.22.28-.49.22-.78.28M22.72,211.35c.22-.22.42-.42.64-.71.42-.42.77-.92,1.27-1.27.14-.14.29-.22.42-.35.07-.07.07-.14.07-.14-.21.07-.28.21-.49.28-.07,0-.07-.07-.07-.07.14-.06.29-.21.43-.28-.07,0-.07-.07-.07-.07-.49-.07-.85.29-1.2.57-.07.07-.14-.07-.22-.07-.56.22-.99.71-1.54.92v-.07c-.22.07-.43.22-.71.29-.35.07-.64.07-.92.07-.42.07-.92.14-1.35.21h-.06c-.22.07-.5.14-.71.29l-.07.07c-.07.07-.14.13-.28.21-.22.14-.43.36-.64.49h-.07c-.22.22-.42.42-.64.57h-.13v-.07c0-.07.06-.13.06-.13.07-.07.07-.14.14-.14.07-.07.07-.14.14-.22v-.07h-.07c.22-.21.42-.35.64-.49,0,0-.07,0-.07-.06l.07-.07c-.07.07-.14.07-.22.13-.07.07-.14.29-.28.22h-.14v-.07s0-.07.07-.07v-.07s0-.06.07-.06v-.07c.07-.07.13-.14.28-.22s.29-.14.42-.21l.07-.07c-.21.07-.42.13-.64.28h-.13c.07-.07.13-.14.21-.21q.07,0,.07.06c1.2-.92,2.89-.7,4.31-1.19.13-.07.21-.14.35-.22.22-.07.35-.28.57-.35.28-.22.49-.49.64-.84,0-.07-.07-.07-.07-.07-.49.57-1.06.92-1.7,1.27-.77.42-1.7.35-2.47.42.07-.07.14-.07.22-.07,0-.13.06-.13.13-.21h.42c.07,0,.07-.07.07-.07.07,0,.22-.07.14-.07-.14-.14-.35.14-.57,0,.07-.07.07-.21.14-.21h.14c0-.07.06-.14.06-.14.57-.35,1.13-.64,1.63-.92-.14,0-.21.13-.28.07.07,0,0-.14.07-.14.42-.14.77-.35,1.19-.49-.13,0-.28.14-.42,0,.07-.07.14-.14.22-.14v-.14c0-.07.07-.07.07-.07-.07,0-.07-.06-.07-.06.07-.07.13-.07.21-.14-.07,0-.13,0-.13-.07.13-.14.28-.22.49-.22-.07-.06-.14,0-.14-.06,0-.07.07-.07.07-.07h-.07c-.07-.07-.07-.14-.07-.14.22-.28.22-.64.35-.92q-.07,0-.07-.07c-.35.42-.99.57-1.55.71h-.21c-.22.06-.42.06-.64-.07-.14-.07-.21-.22-.35-.29-.29-.21-.64-.35-.92-.42-.93-.28-1.91-.42-2.9-.42.43-.22.85-.22,1.35-.35.63-.22,1.27-.43,1.9-.36-.14-.07-.28,0-.35,0-.57-.07-1.06.14-1.63.22-.35.07-.71.22-1.13.28-.21.07-.35.29-.64.29v-.14c.36-.42.85-.92,1.42-.92.7-.14,1.34,0,1.98.07.49.07.92.13,1.41.28.21,0,.21.29.35.36.22.06.42,0,.71.13,0-.07-.07-.13,0-.21.14-.14.35.07.49-.07.28-.22-.29-.49-.42-.78,0-.07.07-.07.07-.07.28.29.49.57.92.78.21.07.63.22.57-.07-.22-.42-.57-.77-.85-1.13v-.13c-.07,0-.07-.07-.13-.07v-.14c-.14-.07-.14-.22-.22-.35-.14-.22-.07-.42-.14-.71.07-.28,0-.49,0-.71-.13-.63-.28-1.19-.35-1.83-.07-.71.42-1.27.77-1.9.29-.42.57-.92,1.06-1.2.14-.42.42-.84.71-1.19.28-.36.77-.57,1.2-.78.49-.21.99-.35.99-.35h7.55s.07,0,.21.07c.14.07.42.21.57.28.29.14.57.35.71.64.07.14.21.35.13.49-.06.21-.13.49-.28.57-.22.13-.49.13-.77.07-.14,0-.29-.07-.43-.07.57.21,1.13.49,1.48.99.07.07.22.14.36.14.07,0,.07.06.07.13-.07.07-.14.14-.14.22h.14c.21-.07.13-.42.42-.35.21.13.28.35.14.56-.14.14-.29.29-.43.36-.06.07-.06.21,0,.28.14.14.14.29.22.42.14.29.14.57.28.85.14.57.29,1.12.29,1.69,0,.29-.14.57-.07.85.07.28.28.57.42.77.14.22.29.35.42.64.22.35.64.77.42,1.2-.13.28-.56.21-.77.35-.22.21-.07.49.07.7.21.36-.22.57-.49.71.07.14.21.07.28.14.07.21.22.28.14.49-.14.21-.64.35-.35.7.13.29.07.57-.07.85-.14.35-.42.49-.71.57-.21.06-.49.06-.7.06-.07-.06-.14-.06-.22-.06-.64-.07-1.27-.29-1.9-.29-.22.07-.35.07-.49.14-.14.14-.36.28-.42.42l-.07.07s0,.07-.07.07v.07c-.14.13-.22.28-.29.42v.07c-.13.21-.21.49-.28.7-.28.85-.14,1.63.07,1.77.07.07,1.27.42,2.05.77.42.14.64.29.92.42h-15.52c.7-.49,1.41-.77,2.47-1.27,0-.22,1.06-.71,1.41-1.06"/>
    <path class="cls-1" d="M16.16,208.04c-.07-.07.14,0,.14-.07h-.36c-.06,0-.06-.07-.06-.07-.22.07-.43.14-.64.14-.29.06-.49.28-.78.35-.42.14-.77.49-1.19.64-.07,0-.07-.07-.07-.07.07-.14.21-.14.28-.29q0-.07-.07-.07c.29-.42.71-.63,1.13-.99v-.13c.14-.14.29-.22.35-.43.07-.13.22-.28.36-.35-.07-.07-.14-.07-.14-.14-.14,0-.28.07-.42-.06.07-.07.14-.14.21-.14,0,0-.06,0-.06-.07-.07-.07.06-.14.21-.22.14-.06.35-.06.42-.13-.28-.07-.57.07-.84-.07.22-.49.49-.92.92-1.13.07,0,.14,0,.14.07,0,.22-.14.35-.29.35.29.07.64.07.93.22-.07.07-.14.07-.14.07.22.13.42.07.64.21-.14.14-.22,0-.36,0,1.2.36,2.41.64,3.39,1.35-.85.42-1.7.63-2.61.77-.14,0-.22,0-.29-.07,0,.07,0,.14-.06.14-.14,0-.29,0-.36.07-.07.21-.28.21-.35.14M15.38,210.64h0c-.13.14-.28.22-.42.29-.13.07-.35.14-.49.21h-.07c-.13.07-.28.22-.35.29l-.07.07-.07.07-.06.06s0,.07-.07.07h-.22l-.14.14c-.06.07-.13.14-.21.22v.06-.06q.07-.07.14-.14l.06-.07.07-.07c.07-.07.07-.14.14-.14l.07-.06s0-.07.07-.07c0,0,0-.07.07-.07v-.14c.06-.07.06-.14.13-.21-.07,0-.07.06-.13.13-.07,0-.14,0-.07-.07l.07-.06c.06-.07.13-.14.21-.22.07,0,.07-.07.14-.07l.07-.07c.35-.35.99-.35,1.48-.57.21-.07.42.07.64,0,.13,0,.21,0,.35.07-.78,0-1.06.22-1.35.42M16.02,210.93c0,.07-.07.07-.07.14q.07,0,.07.06c-.07.07-.13.14-.28.22h-.07q-.07.07-.14.14c-.07.07-.28,0-.21-.07.06-.07.21-.22.28-.29.07-.06.14-.06.14-.13l.07-.07c.07,0,.28-.07.21,0M14.26,205.28q-.07.07-.14.14c-.07.07-.07.13-.14.13s-.07,0-.07-.06c.07-.14.14-.29.29-.36.07.07.07.14.07.14M11.15,207.75l-.07-.07c.49-.64.84-1.27,1.2-1.9.49-.28.92-.64,1.27-1.06.64-.71,1.34-1.27,2.12-1.7.28-.13.71-.06.99.07-.14.14-.28.14-.42.22q-.07,0-.14-.07t.07-.14c-.35.42-.92.64-1.2,1.13-.21.35-.35.84-.84.99-.14.07.07-.14-.07-.07-1.13.78-1.98,1.63-2.89,2.61M16.93,208.59c-.06,0-.21.07-.21-.06.07-.22.28-.22.42-.29.07-.07.22-.14.28-.07.07.14.22.07.29.14-.22.28-.49.22-.78.28M22.72,211.35c.22-.22.42-.42.64-.71.42-.42.77-.92,1.27-1.27.14-.14.29-.22.42-.35.07-.07.07-.14.07-.14-.21.07-.28.21-.49.28-.07,0-.07-.07-.07-.07.14-.06.29-.21.43-.28-.07,0-.07-.07-.07-.07-.49-.07-.85.29-1.2.57-.07.07-.14-.07-.22-.07-.56.22-.99.71-1.54.92v-.07c-.22.07-.43.22-.71.29-.35.07-.64.07-.92.07-.42.07-.92.14-1.35.21h-.06c-.22.07-.5.14-.71.29l-.07.07c-.07.07-.14.13-.28.21-.22.14-.43.36-.64.49h-.07c-.22.22-.42.42-.64.57h-.13v-.07c0-.07.06-.13.06-.13.07-.07.07-.14.14-.14.07-.07.07-.14.14-.22v-.07h-.07c.22-.21.42-.35.64-.49,0,0-.07,0-.07-.06l.07-.07c-.07.07-.14.07-.22.13-.07.07-.14.29-.28.22h-.14v-.07s0-.07.07-.07v-.07s0-.06.07-.06v-.07c.07-.07.13-.14.28-.22s.29-.14.42-.21l.07-.07c-.21.07-.42.13-.64.28h-.13l.21-.21q.07,0,.07.06c1.2-.92,2.89-.7,4.31-1.19.13-.07.21-.14.35-.22.22-.07.35-.28.57-.35.28-.22.49-.49.64-.84,0-.07-.07-.07-.07-.07-.49.57-1.06.92-1.7,1.27-.77.42-1.7.35-2.47.42.07-.07.14-.07.22-.07,0-.13.06-.13.13-.21h.42c.07,0,.07-.07.07-.07.07,0,.22-.07.14-.07-.14-.14-.35.14-.57,0,.07-.07.07-.21.14-.21h.14c0-.07.06-.14.06-.14.57-.35,1.13-.64,1.63-.92-.14,0-.21.13-.28.07.07,0,0-.14.07-.14.42-.14.77-.35,1.19-.49-.13,0-.28.14-.42,0,.07-.07.14-.14.22-.14v-.14c0-.07.07-.07.07-.07-.07,0-.07-.06-.07-.06.07-.07.13-.07.21-.14-.07,0-.13,0-.13-.07.13-.14.28-.22.49-.22-.07-.06-.14,0-.14-.06,0-.07.07-.07.07-.07h-.07c-.07-.07-.07-.14-.07-.14.22-.28.22-.64.35-.92q-.07,0-.07-.07c-.35.42-.99.57-1.55.71h-.21c-.22.06-.42.06-.64-.07-.14-.07-.21-.22-.35-.29-.29-.21-.64-.35-.92-.42-.93-.28-1.91-.42-2.9-.42.43-.22.85-.22,1.35-.35.63-.22,1.27-.43,1.9-.36-.14-.07-.28,0-.35,0-.57-.07-1.06.14-1.63.22-.35.07-.71.22-1.13.28-.21.07-.35.29-.64.29v-.14c.36-.42.85-.92,1.42-.92.7-.14,1.34,0,1.98.07.49.07.92.13,1.41.28.21,0,.21.29.35.36.22.06.42,0,.71.13,0-.07-.07-.13,0-.21.14-.14.35.07.49-.07.28-.22-.29-.49-.42-.78,0-.07.07-.07.07-.07.28.29.49.57.92.78.21.07.63.22.57-.07-.22-.42-.57-.77-.85-1.13v-.13c-.07,0-.07-.07-.13-.07v-.14c-.14-.07-.14-.22-.22-.35-.14-.22-.07-.42-.14-.71.07-.28,0-.49,0-.71-.13-.63-.28-1.19-.35-1.83-.07-.71.42-1.27.77-1.9.29-.42.57-.92,1.06-1.2.14-.42.42-.84.71-1.19.28-.36.77-.57,1.2-.78.49-.21.99-.35.99-.35H0v19.97h18.35c.7-.49,1.41-.77,2.47-1.27.49-.22,1.55-.71,1.9-1.06"/>
    <path class="cls-6" d="M54.98,193.71h-21.46s.07,0,.22.07.42.21.57.28c.28.14.57.36.7.64.07.14.22.35.14.49-.07.22-.14.49-.28.57-.22.14-.49.14-.78.07-.13,0-.28-.07-.42-.07.57.22,1.13.49,1.48.99.07.07.22.14.35.14.07,0,.07.07.07.13-.07.07-.13.14-.13.22h.13c.22-.07.14-.42.42-.35.22.13.29.35.14.57-.14.13-.28.28-.42.35-.07.07-.07.22,0,.28.14.14.14.29.22.43.13.28.13.56.28.84.14.57.28,1.13.28,1.7,0,.28-.13.56-.06.84.06.28.28.57.42.77.14.22.28.36.42.64.22.35.64.78.42,1.2-.14.28-.57.21-.77.35-.22.22-.07.49.07.71.21.35-.22.56-.5.7.07.14.22.07.29.14.07.22.22.28.14.49-.14.22-.64.35-.36.71.14.28.07.56-.07.84-.13.35-.42.49-.7.57-.22.07-.49.07-.71.07-.07-.07-.13-.07-.21-.07-.64-.07-1.28-.29-1.91-.29-.21.07-.35.07-.49.14-.13.14-.35.29-.42.42l-.07.07s0,.07-.06.07v.07c-.14.14-.22.28-.29.42v.07c-.14.21-.21.49-.28.7-.29.85-.14,1.63.07,1.77.06.07,1.27.42,2.04.77.43.14.64.29.93.43h21.1v-19.98h-.49Z"/>
    <path class="cls-9" d="M34.79,200.98c.14.07.35.07.35.14-.07.28-.49.35-.77.7h-.07c-.14.07-.07.29-.22.29-.13-.07-.21,0-.35.07.14.13.35.28.57.21.07,0,.14.07.14.14,0,0,.07,0,.07-.07q.06,0,.06.07v.07c-.13.14-.28.07-.42.14.29.06.64.06.85,0,.21-.07,0-.43.13-.64-.07,0,0-.14-.07-.14.07-.07.14-.22.22-.22s.22-.06.22-.13-.14-.14-.14-.22c.21-.14.42-.35.35-.64-.07-.13-.35-.13-.57-.21-.21-.07-.42,0-.63.07-.22,0-.36.13-.57.13-.29.07-.49.22-.71.36.29-.14.57-.14.84-.22.29.07.43,0,.71.07"/>
  </g>
  <polygon class="cls-8" points="800.71 50.07 800.71 14.23 775.89 23.26 760.41 50.07 800.71 50.07"/>
  <path class="cls-8" d="M811.09,50.07h63.06c2.95,0,5.35,2.4,5.35,5.35v69.44h50.69l7.53-42.69-34.01-58.91L839.79,0l-28.7,10.44v39.63Z"/>
  <polygon class="cls-8" points="869.12 135.24 869.12 124.86 869.12 60.45 754.41 60.45 741.88 82.16 753.69 149.14 805.79 192.86 869.12 192.86 869.12 135.24"/>
  <polygon class="cls-8" points="879.5 135.24 879.5 188.08 925.9 149.14 928.35 135.24 879.5 135.24"/>
  <polygon class="cls-5" points="800.71 50.07 800.71 20.84 780.14 28.33 767.59 50.07 800.71 50.07"/>
  <path class="cls-5" d="M811.09,50.07h63.06c2.95,0,5.35,2.4,5.35,5.35v69.44h44.37l7.32-41.55-31.74-54.98-59.67-21.72-28.7,10.45v33Z"/>
  <polygon class="cls-5" points="879.5 135.24 879.5 179.96 920.17 145.83 922.05 135.24 879.5 135.24"/>
  <polygon class="cls-5" points="869.12 135.24 869.12 124.86 869.12 60.45 761.59 60.45 748.4 83.31 759.42 145.83 808.05 186.64 869.12 186.64 869.12 135.24"/>
  <g>
    <path class="cls-5" d="M807.88,228.34h-9.14c-.87-5.17-3.56-7.32-7.4-7.32-4.7,0-8.05,3.83-8.05,11.96,0,8.87,3.35,12.62,7.99,12.62,3.63,0,6.32-2.28,7.25-6.78h9.27c-1.54,8.8-8.13,13.3-17.06,13.3-9.74,0-17.07-6.18-17.07-18.55s8.07-19.07,17.87-19.07,15.66,5.9,16.33,13.84"/>
    <path class="cls-5" d="M821.65,229.68h15.73c-.61-5.64-3.16-8.66-7.59-8.66s-7.32,2.76-8.14,8.66M846.78,235.73h-25.4c.61,7.52,3.97,9.88,8.27,9.88,3.96,0,6.85-2.21,7.46-6.05h9.27c-1.82,8.33-8.54,12.56-16.93,12.56-9.8,0-17.4-6.11-17.4-18.67,0-10.96,7.18-18.95,18.14-18.95s16.73,8.33,16.73,18.07c0,.87,0,1.94-.13,3.16"/>
    <path class="cls-5" d="M874.8,214.84v7.46c-7.73-.53-11.55,2.89-11.55,12.5v16.39h-9.28v-35.74h9.28v6.51l2.82-4.97c1.75-1.62,4.09-2.42,6.11-2.42,1.08,0,1.82.06,2.62.27"/>
    <path class="cls-5" d="M891.26,238.35c0,1.21,0,2.22.07,3.16.27,3.5,1.54,4.3,6.72,3.9v6.04c-2.09.34-4.03.47-6.12.47-6.91,0-9.4-2.28-9.8-7.32-.13-1.6-.13-3.16-.13-5.17v-17.6h-5.25v-6.11h5.25v-8.8h9.27v8.8h7.39v6.11h-7.39v16.53Z"/>
    <path class="cls-5" d="M905.1,215.44h9.27v35.74h-9.27v-35.74ZM914.84,207.04c0,2.95-2.08,4.91-5.1,4.91s-5.11-1.95-5.11-4.91,2.09-4.91,5.11-4.91,5.1,2.02,5.1,4.91"/>
    <path class="cls-5" d="M933.86,213.96v1.75h7.32v6.11h-7.32v29.36h-9.27v-29.36h-3.83v-6.11h3.83v-1.48c0-1.2,0-2.89.13-4.09.53-6.05,4.5-9.61,12.96-9.61,1.48,0,2.89.2,4.1.47v6.45c-4.37-.81-7.46.4-7.8,3.43-.13.94-.13,2.15-.13,3.09"/>
    <path class="cls-8" d="M968.97,223.87c-7.73,0-12.29,3.35-12.29,8.93s4.57,8.94,12.29,8.94,12.29-3.35,12.29-8.94-4.63-8.93-12.29-8.93M968.97,214.26c10.81,0,18.82,6.66,18.82,18.54s-8,18.55-18.82,18.55-18.82-6.66-18.82-18.55,7.93-18.54,18.82-18.54"/>
    <path class="cls-8" d="M968.9,180.67c-7.32,0-12.23,3.49-12.23,9,0,5.1,3.16,9.27,11.89,9.27h1.68c8.14,0,11.02-4.63,11.02-8.93,0-5.38-4.09-9.34-12.36-9.34M968.29,171.06c12.9,0,19.48,7.93,19.48,17.13,0,2.96-.74,6.58-2.02,8.4l-3.69,2.35h17.93v9.27h-48.91v-9.27h5.44l-3.9-2.68c-1.6-2.02-2.48-5.65-2.48-9.27,0-10.01,7.59-15.92,18.14-15.92"/>
    <path class="cls-8" d="M973.66,145.05h-2.88c-.55,7.39,1.14,12.37,5.84,12.37,3.16,0,4.63-2.15,4.63-5.44,0-3.77-2.61-6.92-7.59-6.92M981.6,144.92l3.83,1.75c1.69,2.48,2.36,5.5,2.36,8.87,0,6.18-3.63,11.49-10.41,11.49-7.87,0-12.3-6.72-12.3-19.69v-2.28h-.73c-1.08,0-2.15,0-3.36.13-2.49.27-4.3,1.88-4.3,5.51s2.15,5.71,6.05,5.98l.06,9c-8.05-.27-12.62-6.79-12.62-15.32,0-10.01,4.36-13.77,10.54-14.31,1.68-.13,3.56-.21,5.5-.21h11.56c2.69,0,5.1-.13,9.06-.67v9.07l-5.24.67Z"/>
    <path class="cls-8" d="M963.99,95.47v9.14c-5.17.87-7.32,3.56-7.32,7.4,0,4.7,3.83,8.05,11.96,8.05,8.87,0,12.62-3.35,12.62-7.99,0-3.63-2.28-6.32-6.78-7.25v-9.27c8.8,1.54,13.3,8.13,13.3,17.06,0,9.74-6.18,17.07-18.55,17.07s-19.07-8.07-19.07-17.87,5.9-15.66,13.84-16.33"/>
    <path class="cls-2" d="M699.23,149.83v-11.2c.05-1.08.29-1.99.71-2.73.42-.75,1.04-1.32,1.86-1.72.82-.4,1.85-.6,3.09-.6.26,0,.49.01.71.02.22.01.4.02.56.02v-4.55h-1.19c-1.34,0-2.52.29-3.56.86-1.04.59-1.79,1.52-2.25,2.83h-.15l-.23-3.43h-4.35v20.48h4.81ZM676.48,145.43c-.77-.53-1.35-1.31-1.75-2.3s-.6-2.18-.6-3.54.21-2.62.62-3.62c.41-1,1.01-1.77,1.79-2.29.78-.52,1.75-.78,2.9-.78,1.03,0,1.92.24,2.67.73.76.48,1.34,1.15,1.74,2,.39.85.6,1.8.6,2.85v2.19c0,1.03-.2,1.96-.58,2.82-.39.84-.96,1.51-1.72,2.02-.76.5-1.7.75-2.83.75s-2.08-.27-2.85-.81M681.82,149.06c1.18-.74,2-1.73,2.43-2.96h.27l.2,3.73h4.54v-20.48h-4.54l-.2,3.7h-.27c-.31-.82-.77-1.54-1.41-2.16-.63-.62-1.38-1.09-2.26-1.42-.88-.34-1.87-.5-2.95-.5-1.67,0-3.13.42-4.38,1.26s-2.24,2.05-2.94,3.63c-.71,1.59-1.06,3.51-1.06,5.74,0,1.64.2,3.12.6,4.44.39,1.32.97,2.44,1.71,3.34.75.92,1.64,1.6,2.65,2.08,1.03.48,2.17.72,3.43.72,1.63,0,3.02-.37,4.2-1.12M652.69,145.54c-.75-.5-1.33-1.17-1.74-2.01-.4-.83-.61-1.78-.61-2.83v-2.19c0-1.03.19-1.98.58-2.83.38-.86.96-1.54,1.73-2.04.77-.5,1.72-.75,2.85-.75s2.08.27,2.85.8c.77.55,1.35,1.31,1.73,2.31.39,1,.58,2.19.58,3.58s-.2,2.54-.6,3.56c-.39,1.01-.99,1.79-1.79,2.32-.79.55-1.75.81-2.88.81-1.06,0-1.95-.26-2.7-.75M650.35,156.26v-10.12h.23c.28.79.74,1.5,1.37,2.12.63.61,1.39,1.09,2.29,1.44.89.35,1.88.51,2.96.51,1.67,0,3.13-.42,4.38-1.27,1.26-.84,2.24-2.07,2.94-3.66.71-1.58,1.06-3.49,1.06-5.69,0-1.67-.2-3.16-.6-4.46-.39-1.32-.97-2.42-1.71-3.33-.75-.92-1.64-1.62-2.65-2.1-1.03-.48-2.17-.73-3.43-.73-1.63,0-3.01.38-4.2,1.13-1.18.76-2,1.76-2.43,2.98h-.27l-.2-3.73h-4.58v26.91h4.81ZM619.63,135.06c.41-.81.98-1.42,1.69-1.83.72-.41,1.57-.62,2.54-.62s1.79.2,2.51.59c.71.38,1.27.97,1.65,1.77.39.79.56,1.82.5,3.08l.46-.53h-10.43l.42.49c.03-1.15.25-2.13.66-2.94M628.36,149.41c1.29-.51,2.34-1.26,3.16-2.21.82-.97,1.34-2.11,1.54-3.45h-4.55c-.26.84-.76,1.52-1.52,2.04-.75.51-1.74.77-2.94.77-1.03,0-1.91-.23-2.67-.68-.76-.44-1.35-1.11-1.77-2-.42-.88-.64-1.99-.64-3.29h14.25c.21-2.26-.02-4.26-.66-6.01-.64-1.74-1.69-3.11-3.14-4.09-1.45-.99-3.3-1.48-5.57-1.48-1.98,0-3.68.43-5.11,1.31-1.44.87-2.54,2.11-3.31,3.71-.77,1.6-1.15,3.5-1.15,5.68s.38,3.94,1.15,5.52c.77,1.57,1.88,2.8,3.33,3.65,1.45.86,3.21,1.3,5.29,1.3,1.59,0,3.02-.26,4.31-.77M603.38,126.85l3.38-5.5h-4.81l-2.27,5.5h3.7ZM596.87,135.06c.41-.81.98-1.42,1.7-1.83.72-.41,1.56-.62,2.54-.62s1.78.2,2.5.59c.72.38,1.28.97,1.66,1.77.39.79.56,1.82.5,3.08l.46-.53h-10.43l.42.49c.02-1.15.25-2.13.65-2.94M605.62,149.41c1.29-.51,2.34-1.26,3.16-2.21.81-.97,1.33-2.11,1.53-3.45h-4.54c-.26.84-.76,1.52-1.52,2.04-.76.51-1.74.77-2.94.77-1.03,0-1.92-.23-2.67-.68-.76-.44-1.35-1.11-1.77-2-.43-.88-.64-1.99-.64-3.29h14.24c.21-2.26-.01-4.26-.65-6.01-.65-1.74-1.69-3.11-3.14-4.09s-3.3-1.48-5.57-1.48c-1.98,0-3.68.43-5.12,1.31-1.43.87-2.54,2.11-3.3,3.71-.77,1.6-1.16,3.5-1.16,5.68s.39,3.94,1.16,5.52c.76,1.57,1.87,2.8,3.32,3.65,1.45.86,3.22,1.3,5.3,1.3,1.58,0,3.02-.26,4.31-.77M583.14,149.83v-11.2c.05-1.08.29-1.99.71-2.73.42-.75,1.04-1.32,1.86-1.72.82-.4,1.85-.6,3.09-.6.26,0,.49.01.71.02.22.01.4.02.56.02v-4.55h-1.19c-1.34,0-2.52.29-3.56.86-1.04.59-1.79,1.52-2.25,2.83h-.15l-.23-3.43h-4.35v20.48h4.81ZM568.01,149.83l7.12-20.48h-5.2l-3.43,11.82-1.42,4.97h-.2l-1.42-4.97-3.43-11.82h-5.16l7.12,20.48h6.01ZM551.17,125.94c.49-.42.75-.99.75-1.71s-.26-1.33-.75-1.73c-.5-.41-1.14-.62-1.9-.62s-1.41.21-1.91.62c-.49.4-.75.99-.75,1.73s.26,1.29.75,1.71c.5.43,1.14.64,1.91.64s1.4-.21,1.9-.64M551.65,129.34h-4.81v20.48h4.81v-20.48ZM541.64,121.76h-4.81v28.06h4.81v-28.06ZM525.05,126.85l3.39-5.5h-4.81l-2.27,5.5h3.69ZM518.54,135.06c.41-.81.98-1.42,1.7-1.83s1.56-.62,2.54-.62,1.78.2,2.5.59c.72.38,1.27.97,1.66,1.77.38.79.55,1.82.49,3.08l.46-.53h-10.43l.42.49c.03-1.15.25-2.13.66-2.94M527.28,149.41c1.29-.51,2.34-1.26,3.16-2.21.82-.97,1.34-2.11,1.54-3.45h-4.55c-.26.84-.76,1.52-1.51,2.04-.76.51-1.74.77-2.95.77-1.02,0-1.91-.23-2.67-.68-.75-.44-1.35-1.11-1.77-2-.42-.88-.64-1.99-.64-3.29h14.25c.21-2.26-.01-4.26-.66-6.01-.64-1.74-1.69-3.11-3.14-4.09-1.45-.99-3.3-1.48-5.56-1.48-1.98,0-3.68.43-5.12,1.31s-2.54,2.11-3.31,3.71c-.77,1.6-1.15,3.5-1.15,5.68s.38,3.94,1.15,5.52c.77,1.57,1.88,2.8,3.33,3.65,1.45.86,3.21,1.3,5.29,1.3,1.59,0,3.03-.26,4.31-.77M490.21,126.11h5.77c1.68,0,3.14.33,4.39.99,1.26.65,2.24,1.68,2.94,3.08.71,1.4,1.06,3.24,1.06,5.52,0,1.74-.21,3.23-.62,4.46-.41,1.23-.99,2.23-1.73,3.02-.74.78-1.64,1.35-2.65,1.71-1.03.36-2.16.53-3.39.53h-5.77v-19.32ZM496.8,149.83c2.06,0,3.87-.33,5.44-1,1.58-.67,2.92-1.62,4.02-2.85,1.11-1.23,1.94-2.72,2.51-4.44.57-1.74.84-3.64.84-5.72,0-2.82-.5-5.29-1.5-7.39-1-2.11-2.46-3.74-4.37-4.91-1.9-1.17-4.23-1.76-6.94-1.76h-11.67v28.06h11.67Z"/>
  </g>
</svg>