<?xml version="1.0" encoding="UTF-8"?>
<svg id="Calque_1" data-name="Calque 1" xmlns="http://www.w3.org/2000/svg" viewBox="0 0 101.85 78.36">
  <defs>
    <style>
      .cls-1 {
        fill: #fff;
      }
    </style>
  </defs>
  <path class="cls-1" d="M44.57,26.4c0-8.14-2.2-14.57-6.6-19.3C33.58,2.37,28.14,0,21.66,0S9.96,2.12,5.98,6.35C1.99,10.58,0,16.19,0,23.16c0,5.98,1.54,10.87,4.61,14.69,3.07,3.82,6.85,5.73,11.33,5.73,2.33,0,3.24,1.58,2.74,4.73-.33,3.49-1.49,6.72-3.49,9.71-1.99,2.99-5.48,6.97-10.46,11.95-2.15,2.15-2.2,4.31-.12,6.47,2.08,2.16,4.36,2.49,6.85,1,22.08-13.94,33.12-30.96,33.12-51.05M101.85,26.4c0-8.14-2.24-14.57-6.72-19.3S85.25,0,78.94,0c-6.64,0-11.95,2.12-15.94,6.35-3.98,4.23-5.98,9.84-5.98,16.81,0,5.98,1.58,10.87,4.73,14.69,3.16,3.82,6.97,5.73,11.45,5.73,2.33,0,3.24,1.58,2.74,4.73-.5,3.49-1.74,6.72-3.74,9.71-1.99,2.99-5.48,6.97-10.46,11.95-1.99,2.15-1.95,4.31.12,6.47,2.08,2.16,4.36,2.49,6.85,1,22.08-13.94,33.12-30.96,33.12-51.05"/>
</svg>