<?xml version="1.0" encoding="UTF-8"?>
<svg xmlns="http://www.w3.org/2000/svg" viewBox="0 0 261.64 254.46">
  <g id="base">
    <path fill="#dad18d" d="M5.67,218.87c-3.13,0-5.67-2.54-5.67-5.67V5.67C0,2.54,2.54,0,5.67,0h250.3c3.13,0,5.67,2.54,5.67,5.67v243.12c0,3.13-2.54,5.67-5.67,5.67h-119.48c-3.13,0-5.67-2.54-5.67-5.67v-24.25c0-3.13-2.54-5.67-5.67-5.67H5.67Z"/>
  </g>

  <g id="stars" transform="translate(150.45,230.56)" fill="#012732">
    <path d="M14.11,5.24c-.13-.41-.51-.71-.94-.73l-3.82-.26-1.42-3.57c-.16-.4-.55-.67-.98-.67-.43,0-.82.27-.98.67l-1.44,3.59-3.8.24c-.43.03-.81.32-.94.73-.14.42,0,.88.34,1.16l2.92,2.47-.87,3.42c-.12.47.06.97.45,1.26.38.27.89.29,1.29.04l3.02-1.91h.01l3.25,2.05c.17.11.36.17.56.17.59,0,1.06-.48,1.05-1.07,0-.09-.01-.18-.04-.27l-.92-3.74,2.91-2.42c.34-.28.47-.74.34-1.16"/>
    <path d="M33.93,5.24c-.13-.41-.51-.71-.94-.73l-3.82-.26-1.42-3.57c-.16-.4-.55-.67-.98-.67-.43,0-.82.27-.98.67l-1.44,3.59-3.8.24c-.43.03-.81.32-.94.73-.14.42,0,.88.33,1.16l2.92,2.47-.87,3.42c-.12.47.06.97.45,1.26.38.27.89.29,1.29.04l3.02-1.91h.01l3.25,2.05c.17.11.36.17.56.17.59,0,1.06-.48,1.05-1.07,0-.09-.01-.18-.04-.27l-.92-3.74,2.91-2.42c.34-.28.47-.74.33-1.16"/>
    <path d="M53.76,5.24c-.13-.41-.51-.71-.94-.73l-3.82-.26-1.42-3.57c-.16-.4-.55-.67-.98-.67-.43,0-.82.27-.98.67l-1.44,3.59-3.8.24c-.43.03-.81.32-.94.73-.14.42,0,.88.33,1.16l2.92,2.47-.87,3.42c-.12.47.06.97.45,1.26.38.27.89.29,1.29.04l3.02-1.91h.01l3.25,2.05c.17.11.36.17.56.17.59,0,1.06-.48,1.05-1.07,0-.09-.01-.18-.04-.27l-.92-3.74,2.91-2.42c.34-.28.47-.74.33-1.16"/>
    <path d="M73.58,5.24c-.13-.41-.5-.71-.94-.73l-3.82-.26-1.42-3.57c-.16-.4-.55-.67-.98-.67-.43,0-.82.27-.98.67l-1.44,3.59-3.8.24c-.43.03-.81.32-.94.73-.14.42,0,.88.33,1.16l2.92,2.47-.87,3.42c-.12.47.06.97.45,1.26.38.27.89.29,1.29.04l3.02-1.91h.01l3.25,2.05c.17.11.36.17.56.17.59,0,1.06-.48,1.05-1.07,0-.09-.01-.18-.04-.27l-.92-3.74,2.91-2.42c.34-.28.47-.74.33-1.16"/>
    <path d="M92.88,5.24c-.13-.41-.5-.71-.94-.73l-3.82-.26-1.42-3.57c-.16-.4-.55-.67-.98-.67-.43,0-.82.27-.98.67l-1.44,3.59-3.8.24c-.43.03-.81.32-.94.73-.14.42,0,.88.33,1.16l2.92,2.47-.87,3.42c-.12.47.06.97.45,1.26.38.27.89.29,1.29.04l3.02-1.91h.01l3.25,2.05c.17.11.36.17.56.17.59,0,1.06-.48,1.05-1.07,0-.09-.01-.18-.04-.27l-.92-3.74,2.91-2.42c.34-.28.47-.74.33-1.16"/>
  </g>
  <!-- Quotation marks in top-right -->
  <g id="quotes" transform="translate(147.79,12)" fill="#ffffff" fill-opacity="0.3">
    <path d="M44.57,26.4c0-8.14-2.2-14.57-6.6-19.3C33.58,2.37,28.14,0,21.66,0S9.96,2.12,5.98,6.35C1.99,10.58,0,16.19,0,23.16c0,5.98,1.54,10.87,4.61,14.69,3.07,3.82,6.85,5.73,11.33,5.73,2.33,0,3.24,1.58,2.74,4.73-.33,3.49-1.49,6.72-3.49,9.71-1.99,2.99-5.48,6.97-10.46,11.95-2.15,2.15-2.2,4.31-.12,6.47,2.08,2.16,4.36,2.49,6.85,1,22.08-13.94,33.12-30.96,33.12-51.05M101.85,26.4c0-8.14-2.24-14.57-6.72-19.3S85.25,0,78.94,0c-6.64,0-11.95,2.12-15.94,6.35-3.98,4.23-5.98,9.84-5.98,16.81,0,5.98,1.58,10.87,4.73,14.69,3.16,3.82,6.97,5.73,11.45,5.73,2.33,0,3.24,1.58,2.74,4.73-.5,3.49-1.74,6.72-3.74,9.71-1.99,2.99-5.48,6.97-10.46,11.95-1.99,2.15-1.95,4.31.12,6.47,2.08,2.16,4.36,2.49,6.85,1,22.08-13.94,33.12-30.96,33.12-51.05"/>
  </g>
</svg>
