<?xml version="1.0" encoding="UTF-8"?>
<svg id="Calque_1" xmlns="http://www.w3.org/2000/svg" version="1.1" viewBox="0 0 211.9 223.8">
  <!-- Generator: Adobe Illustrator 29.8.1, SVG Export Plug-In . SVG Version: 2.1.1 Build 2)  -->
  <path d="M7.7,28.8c-4.3,0-7.7,3.5-7.7,7.7v179.5c0,4.3,3.5,7.7,7.7,7.7h196.5c4.3,0,7.7-3.5,7.7-7.7V7.7c0-4.3-3.5-7.7-7.7-7.7h-90.5c-4.3,0-7.7,3.5-7.7,7.7v13.4c0,4.3-3.5,7.7-7.7,7.7H7.7Z" fill="#cabd5c"/>
  <g>
    <path d="M136.3,26.5c-.3.3-.6.1-.8-.3-1.5-4.4-4.2-8.9-5.6-13.4-.3-1.1-.3-2,.8-2.5.6-.3.9-.4,1.5,0,1.1.7,2.1,4.6,2.9,5.8,1,1.4,1.8,0,2.2-1,1.2-2.7,2.2-5.6,3.4-8.3.1-.3.5-.4.8-.3.4.1,1.6,3.2,1.5,3.7l-6.8,16.3h0Z" fill="#012732"/>
    <path d="M152.4,10.8c.5.5.6,1.4.3,2-2,4.2-3.4,8.9-5.5,13-.7,1.5-.9.9-1.4-.2-1.3-2.8-2.3-5.8-3.7-8.6,0-.2,1.4-3.5,1.6-3.9.5-.8.6,0,.9.5.6,1.3,1.3,4.8,3.1,2.4.7-1.2,1.7-4.4,2.5-5.3.6-.6,1.7-.5,2.3.1" fill="#012732"/>
    <path d="M162.3,20.7c-.4-1.8-1.9-2.5-3.5-2.6-1.6-.1-5-.3-6.3,1-1.2,1.2-1.2,5.7-.2,7,1.2,1.6,4.9,1.4,6.7,1.3,1.6-.2,3.4-.8,3.5-2.8,0-.9-1.4-.9-1.9-.7-.4.2,0,1.2-1.1,1.4-.8.2-4,.1-4.7-.2s-.9-1-.9-1.7h8.4c.5,0,.2-2.3.1-2.7M160.3,21.4h-6.4c0-.6.2-1,.8-1.2.7-.2,3.9-.2,4.6,0,.5.1,1.1.5,1,1.2" fill="#012732"/>
    <path d="M178.6,18.4c1.2-.4,5.3-.4,6.6,0,1.3.3,2,1.2,2.2,2.6.2,1.9,0,4.1,0,6.1-.3.6-1.7.1-2.2.1-.4,0-.9.3-1.4.3-1.4,0-4.8.2-5.9-.4-1.6-1-1.6-5.2.7-5.3l-1.2-.3c-.4-.3-.2-1.1,0-1.6.2-.8.6-1.2,1.3-1.4M184.7,23.6c-.8-.3-4.2-.3-5-.1-1.1.2-1.1,1.6,0,1.8.8.2,4.4.1,5.1-.2.6-.2.6-1.3,0-1.5M184,20.1c-.8,0-3.6-.1-4.3,0-.5.1-.5.4-.5.9l-.2.3c1.7,0,3.4,0,5.1.1.3,0,.6,0,.9.3,0-1.1,0-1.5-1.1-1.6" fill="#012732"/>
    <path d="M179.3,21.1c0,0,0,.3,0,.3.2.1,3.9,0,4.5,0,.2,0,.4.1.4.1h-5.3l.4-.4h0Z" fill="#012732"/>
    <path d="M172.8,15.2c.1-.4,1.5-.4,1.9-.3.2,0,.3.2.3.3v11.7c0,.4-1.4.4-1.7.3-.3,0-.3-.5-.4-.5,0,0-.7.4-.9.4-1.5.4-5.2.4-6.5-.6-1-.7-1.2-1.9-1.2-3.1-.2-3.1.3-5.1,3.6-5.4,1.5-.1,3.6-.1,5,.4.2-.9-.2-2.6,0-3.3h0ZM171.8,20.2c-.7-.2-3.4-.2-4.2-.1-.4,0-.9.3-1.1.7-.2.6-.2,3.4.1,3.9.5.7,3.6.6,4.5.5.7,0,1.2-.2,1.5-.9.2-.6.3-3.3-.2-3.8-.1-.1-.5-.3-.6-.4" fill="#012732"/>
  </g>
</svg>