<?xml version="1.0" encoding="UTF-8"?>
<svg id="Calque_1" data-name="Calque 1" xmlns="http://www.w3.org/2000/svg" viewBox="0 0 93.19 13.9">
  <defs>
    <style>
      .cls-1 {
        fill: #012732;
      }
    </style>
  </defs>
  <path class="cls-1" d="M14.11,5.24c-.13-.41-.51-.71-.94-.73l-3.82-.26-1.42-3.57c-.16-.4-.55-.67-.98-.67-.43,0-.82.27-.98.67l-1.44,3.59-3.8.24c-.43.03-.81.32-.94.73-.14.42,0,.88.34,1.16l2.92,2.47-.87,3.42c-.12.47.06.97.45,1.26.38.27.89.29,1.29.04l3.02-1.91h.01l3.25,2.05c.17.11.36.17.56.17.59,0,1.06-.48,1.05-1.07,0-.09-.01-.18-.04-.27l-.92-3.74,2.91-2.42c.34-.28.47-.74.34-1.16"/>
  <path class="cls-1" d="M33.93,5.24c-.13-.41-.51-.71-.94-.73l-3.82-.26-1.42-3.57c-.16-.4-.55-.67-.98-.67-.43,0-.82.27-.98.67l-1.44,3.59-3.8.24c-.43.03-.81.32-.94.73-.14.42,0,.88.33,1.16l2.92,2.47-.87,3.42c-.12.47.06.97.45,1.26.38.27.89.29,1.29.04l3.02-1.91h.01l3.25,2.05c.17.11.36.17.56.17.59,0,1.06-.48,1.05-1.07,0-.09-.01-.18-.04-.27l-.92-3.74,2.91-2.42c.34-.28.47-.74.33-1.16"/>
  <path class="cls-1" d="M53.76,5.24c-.13-.41-.51-.71-.94-.73l-3.82-.26-1.42-3.57c-.16-.4-.55-.67-.98-.67-.43,0-.82.27-.98.67l-1.44,3.59-3.8.24c-.43.03-.81.32-.94.73-.14.42,0,.88.33,1.16l2.92,2.47-.87,3.42c-.12.47.06.97.45,1.26.38.27.89.29,1.29.04l3.02-1.91h.01l3.25,2.05c.17.11.36.17.56.17.59,0,1.06-.48,1.05-1.07,0-.09-.01-.18-.04-.27l-.92-3.74,2.91-2.42c.34-.28.47-.74.33-1.16"/>
  <path class="cls-1" d="M73.58,5.24c-.13-.41-.5-.71-.94-.73l-3.82-.26-1.42-3.57c-.16-.4-.55-.67-.98-.67-.43,0-.82.27-.98.67l-1.44,3.59-3.8.24c-.43.03-.81.32-.94.73-.14.42,0,.88.33,1.16l2.92,2.47-.87,3.42c-.12.47.06.97.45,1.26.38.27.89.29,1.29.04l3.02-1.91h.01l3.25,2.05c.17.11.36.17.56.17.59,0,1.06-.48,1.05-1.07,0-.09-.01-.18-.04-.27l-.92-3.74,2.91-2.42c.34-.28.47-.74.33-1.16"/>
  <path class="cls-1" d="M92.88,5.24c-.13-.41-.5-.71-.94-.73l-3.82-.26-1.42-3.57c-.16-.4-.55-.67-.98-.67-.43,0-.82.27-.98.67l-1.44,3.59-3.8.24c-.43.03-.81.32-.94.73-.14.42,0,.88.33,1.16l2.92,2.47-.87,3.42c-.12.47.06.97.45,1.26.38.27.89.29,1.29.04l3.02-1.91h.01l3.25,2.05c.17.11.36.17.56.17.59,0,1.06-.48,1.05-1.07,0-.09-.01-.18-.04-.27l-.92-3.74,2.91-2.42c.34-.28.47-.74.33-1.16"/>
</svg>