<?xml version="1.0" encoding="UTF-8"?>
<svg id="Calque_1" data-name="Calque 1" xmlns="http://www.w3.org/2000/svg" viewBox="0 0 60.59 17.01">
  <defs>
    <style>
      .cls-1 {
        fill: #012732;
      }
    </style>
  </defs>
  <path class="cls-1" d="M6.89,14.23v-2.26s-1.03.24-1.46.24c-.31,0-.6-.07-.6-.59v-4.23h1.6l.29-2.05h-1.89v-2.75l-3.05.74-.4,2.01H0v2.05h1.38v4.44c0,2.48,1.57,2.81,3.18,2.81,1.26,0,2.32-.41,2.32-.41"/>
  <path class="cls-1" d="M13.44,9.14h-2.01c.05-1.05.02-1.96,1.07-1.96.95,0,.91.93.95,1.96M16.69,9.91c.07-3.89-2.34-4.73-4.22-4.73-2,0-4.39.86-4.39,4.73,0,4.32,2.74,4.73,4.82,4.73,1.7,0,3.3-.48,3.3-.48v-2.36s-2.12.38-2.96.38c-1.29,0-1.79-.17-1.79-1.26h5.22l.02-1.02Z"/>
  <path class="cls-1" d="M24.49,8.12v-2.82s-.41-.12-.96-.12c-1.39,0-1.81,1.09-1.81,1.09l-.52-.91h-2.7v9.12h3.44v-6.26s.52-.28,1.19-.28,1.36.19,1.36.19"/>
  <path class="cls-1" d="M32.29,8.12v-2.82s-.41-.12-.96-.12c-1.39,0-1.81,1.09-1.81,1.09l-.52-.91h-2.7v9.12h3.44v-6.26s.52-.28,1.19-.28,1.36.19,1.36.19"/>
  <path class="cls-1" d="M38.14,12.15s-.55.33-.9.33c-.4,0-.67-.17-.67-1.03,0-.95.29-1.15,1.2-1.2l.36-.02v1.93ZM41.58,14.47v-6.16c0-2.6-1.76-3.13-3.98-3.13-1.7,0-3.42.5-3.42.5v2.34s1.84-.41,2.89-.41c.83,0,1.07.15,1.07.69v.4h-1.58c-1.36,0-3.41.52-3.41,3.01s1.46,2.94,2.58,2.94c1.65,0,2.46-.98,2.46-.98l.34.81h3.05Z"/>
  <path class="cls-1" d="M42.09,4.04c0,.12-.02.15-.19.16v-.28h.02c.13,0,.17.02.17.12M42.4,4.79l-.08-.24c-.03-.1-.07-.18-.14-.23.1-.05.19-.12.19-.27,0-.29-.22-.32-.43-.32h-.32v1.06h.28v-.4h.05s.07.12.09.22l.04.18h.32ZM42.67,4.28c0,.49-.3.76-.7.76s-.7-.28-.7-.76.3-.76.7-.76.7.28.7.76M42.99,4.28c0-.66-.44-1.05-1.02-1.05s-1.02.38-1.02,1.05.44,1.05,1.02,1.05,1.02-.38,1.02-1.05"/>
  <path class="cls-1" d="M47.91,14.11c-.15-.19-.26-.61-.42-.72-.11-.07-.33-.19-.55-.31-.22-.12-.43-.24-.49-.31-.11-.12-.14-.66-.17-1-.26-.13-.61-.33-.61-.5,0-.25-.11-.21-.14-.39-.04-.18-.08-.29-.08-.43,0-.03-.01-.07-.03-.12h0c-.09-.22-.33-.6-.33-.69,0-.08-.19-.39-.3-.53.03.42.1.83.2,1.22.26,1.02.74,1.95,1.38,2.75.51.63,1.12,1.18,1.81,1.62,0-.23-.13-.43-.25-.59"/>
  <path class="cls-1" d="M45.04,7.57h0c-.02-.27-.1-.54-.12-.66-.04.2-.07.43-.1.66-.04.32-.06.65-.06.93v.03c.1-.21.24-.47.27-.68.02-.09.02-.18,0-.28"/>
  <path class="cls-1" d="M50.64,1.65c.09-.02.08-.26.1-.36-.22.04-.48.09-.7.15.16.09.33.24.6.2"/>
  <path class="cls-1" d="M58.82,6.94c0-.12.23-.18.38-.26-.08-.31-.18-.62-.3-.91-.03.03-.07.07-.13.11-.18.12-.18.35-.23.47-.15.39-.53.41-.5.5.03.09.75.55.78.09"/>
  <path class="cls-1" d="M47.29,3.52c.11-.07.25-.32.4-.4.13-.07.82-.8.92-1.07-1.09.59-2.01,1.45-2.68,2.48.27-.17.63-.34.76-.41.22-.11.5-.54.61-.61"/>
  <path class="cls-1" d="M58.43,8.06s-.43-.12-.51-.04c-.05.16.48.8.67.93,0,0,0,0,.01,0,.31.18.48.93.62,1.22.09-.4.15-.81.18-1.23,0-.15.01-.3.01-.45-.25-.11-.76-.25-.99-.44"/>
  <path class="cls-1" d="M53.73,6.37s0-.14-.06-.14c-.14,0-.29.1-.29-.07s-.21-.41-.03-.48c.17-.07.33-.01.35.03.03.08-.14.11.03.25.17.14.25-.07.3-.06.11.05.11.32.15.56.03.24-.52.03-.44-.09M52.86,4.32c-.13.09-.28.16-.25.35.03.19.09.19-.13.25-.22.06-.43.04-.53.35-.02.07-.49.51-.5.47-.22-.41-.44-.6-.35-.72.09-.13.38-.51.25-.7s-.4-.71-.38-.81c.16-.06.35-.31.53-.19.19.13.41.28.47.19.06-.09.19-.16.38-.13.19.03.13.28.22.32.09.03.41.53.28.63M57.71,7.57c0-.11,0-.24-.05-.39-.04-.17-.15-.37-.24-.58-.09-.21-.21.24-.36.34-.15.09-.27-.09-.3-.27-.03-.18.15-.52.3-.61.15-.09.46-.2.33-.36-.55-.62-1.01.13-.98.43.03.3.21.27.15.42-.06.15.4.5.16.56-.38.11-.88-.55-1.06-.51-.18.03.27.43.45.6.08.03,0,.32-.08.28,0,0-.36-.61-.54-.65-.18-.09,0,.32-.1.38-.09.06-.13-.05-.31-.02-.18.03-.02.14-.09.32,0,.02-.01.03-.02.05-.04.16-.04.28-.04.28,0,0-.15.3-.3.4-.15.09-.63.08-.69-.07-.05-.12-.13-.42-.15-.61,0-.05,0-.09,0-.12.03-.15.25-.24.43-.26.1-.01.13-.1.1-.12-.1-.06-.18-.2-.15-.33.04-.04.25-.23.37-.38.12-.15.14-.23.17-.48.03-.24.12-.12.3-.12.49-.18.21-.43.18-.55-.03-.12-.08-.68-.14-.62-.06.06-.12.15-.24.03-.12-.12-.18-.4-.27-.36-.09.03-.14.21-.08.36.06.15.04.24.19.31.15.06.12.14.09.23-.03.09.13.26,0,.35-.12.09-.39-.43-.36-.33.05.17-.6.81-.64.07-.01-.21.25-.29.08-.66-.09-.19-.05-.65.08-.86.12-.21.46.03.67.03s.15.09.06.18c.09,0,.24.12.33.24.09-.09-.16-.64-.16-.77,0-.65-.63-.48-.66-.57-.03-.09.06-.18.18-.24.12-.06.3-.03.27-.12-.18-.12-.52-.02-.7-.02s-.12-.07-.27-.19c-.15-.12-1.06-.43-1.37-.4-.3.03-.33.03-.46-.12-.12-.15-.58.12-.55.27.03.15-.3.03-.49-.12-.05-.04-.13-.02-.18-.01-.18.17-.42.31-.61.45-.25.18-.32.22-.18.36.14.14.04.25-.11.32-.14.07-.22.14-.07.25s.23-.12.45-.17c.07.11.2.06.38.06s.14.45-.12.81c0,0-.47.08-.54.19-.07.11-.44.01-.54.16-.07.11.26.37.41.34.14-.03.52.67.67.75.16.09.07.13-.04.38-.11.25.09.53.2.74.11.22-.29.36-.25.32,0,0-.26-.1-.44-.13-.18-.04-.42.28-.46.46-.04.18.21.34.07.37-.14.04-.28-.01-.36-.15-.07-.14-.39.03-.43.18,0,0,0,0,0,0-.04.14-.26.09-.45.13-.25.06-.39.31-.61.53-.31.15-.5.32-.59.71-.03.11-.05.25-.06.4-.01.15-.3.06-.34-.12-.02-.08-.02-.18-.02-.28,0-.11,0-.23.02-.33.05-.4-.6-.56-.82-.56s-.37.24-.51.6c-.1.25-.01.26.04.3.02.02.04.04.03.1,0,0,.22.25.29.14.07-.11.22.11.25.29.03.18-.12.22-.2.33-.07.11.09.32.16.5,0,0,0,.02,0,.02.06.2.08.65.13.72.02.07.16.2.32.32.03-.18.11-.38.19-.44.13-.1.24-.28.23-.42.01-.05.04-.11.07-.17.08-.14.22-.27.33-.26.16.02.14.09.53.21.04.01.08.03.13.05.53.28,1.12,1.24,1.24,1.25.13.02.39-.05.45.1.06.14.03.26.13.34.1.08.29.5.53.6s.64.16.74.24c.05.04.13.15.22.23.08.07.17.13.27.12.21-.02.35,0,.35.18s-.17,1.07-.69,1.29c-.15.06-.77-.07-.84.1-.07.16.11.21-.07.32-.12.08-.51.2-.72.22.84.34,1.76.52,2.72.52,1.39,0,2.69-.39,3.79-1.06.19-.39.71-1.23.78-1.36.02-.04.05-.18.06-.33.02-.22.02-.47-.03-.56-.18-.3-.84-.71-1.93-.1-.21.12-.75-.34-.93-.58-.17-.22-.15-1.19-.08-1.52,0-.03.01-.06.02-.07.09-.21.27-1.11.54-1.26.02-.02.04-.03.05-.04h0c.34-.26.65-.33.94-.5.3-.18.39-.33.63-.39.24-.06.15.33.33.45.18.12.45.03.54-.12.09-.15.09-.24.33-.24.18,0,.56-.09.57-.57"/>
  <path class="cls-1" d="M52.09,16.33c-4.32,0-7.83-3.5-7.83-7.83s3.5-7.82,7.83-7.82,7.83,3.5,7.83,7.82-3.5,7.83-7.83,7.83M52.09,0c-4.7,0-8.5,3.81-8.5,8.5s3.81,8.5,8.5,8.5,8.5-3.81,8.5-8.5S56.78,0,52.09,0"/>
</svg>